<svg version="1.1" id="Layer_1" xmlns="http://www.w3.org/2000/svg" xmlns:xlink="http://www.w3.org/1999/xlink" x="0px" y="0px"
	 width="100%" viewBox="0 0 720 405" enable-background="new 0 0 720 405" xml:space="preserve">
<path fill="#2A3A5B" opacity="1.000000" stroke="none" 
	d="
M488.000000,406.000000 
	C325.369354,406.000000 163.238724,406.000000 1.054037,406.000000 
	C1.054037,271.066040 1.054037,136.132034 1.054037,1.099022 
	C240.880646,1.099022 480.761322,1.099022 720.821045,1.099022 
	C720.821045,135.999802 720.821045,270.999878 720.821045,406.000000 
	C643.465393,406.000000 565.982666,406.000000 488.000000,406.000000 
M290.947815,141.006409 
	C290.947815,141.006409 290.863007,141.038010 290.982330,141.761719 
	C298.014954,152.562820 296.659760,164.726440 296.087036,176.565521 
	C295.882507,180.793945 295.505280,184.630234 297.713867,188.341019 
	C298.590027,189.813080 299.829651,192.624176 300.319519,192.501053 
	C302.419128,191.973358 304.999603,191.037643 306.083588,189.384415 
	C307.405853,187.367783 307.404114,184.483017 308.125092,181.051971 
	C307.930115,174.583618 307.982971,168.096069 307.483612,161.651306 
	C306.679443,151.272141 301.264526,143.648071 292.427155,138.405212 
	C291.021851,137.571518 289.289337,137.289307 287.708130,136.752136 
	C287.548431,137.041290 287.388763,137.330444 287.229065,137.619598 
	C288.159912,138.489761 289.090790,139.359924 290.179321,140.675293 
	C290.366516,140.976059 290.636871,141.113052 290.947815,141.006409 
M283.637604,252.303360 
	C283.831665,244.742081 281.356171,238.272980 275.635712,233.219406 
	C271.147980,229.254822 265.865143,225.715485 269.650848,218.610046 
	C265.764709,216.801041 264.430359,218.396835 263.426392,221.917374 
	C258.790497,228.677094 254.154587,235.436829 249.262009,242.570847 
	C250.857819,243.842453 252.817383,245.625473 254.990005,247.093109 
	C261.225220,251.305099 267.263184,255.206818 265.213989,264.642242 
	C264.423981,268.279938 267.276978,271.615448 271.410339,272.585999 
	C275.357727,273.512878 278.916046,271.767822 280.164032,268.423859 
	C281.967712,263.590881 282.459320,258.268250 283.637604,252.303360 
M224.655762,293.907867 
	C225.758438,293.243958 226.861099,292.580048 228.535355,291.594391 
	C229.193573,290.046356 229.851791,288.498322 230.728378,286.183136 
	C229.620667,282.760101 228.512955,279.337036 227.657379,275.053589 
	C227.163284,270.619324 227.427200,265.930237 226.037521,261.797089 
	C221.259491,247.586472 207.733322,243.201126 196.376923,252.094833 
	C193.610596,254.261276 191.895966,257.770660 189.199524,259.988770 
	C188.090485,253.637314 191.206146,248.794937 195.479202,243.763519 
	C201.763000,238.837723 208.830582,237.811188 216.200623,240.355835 
	C226.420547,243.884460 231.638428,251.901566 234.282043,262.713776 
	C235.118759,265.335114 235.698746,268.079163 236.874298,270.538513 
	C237.796173,272.467194 239.775558,273.885742 240.722076,275.808167 
	C242.949036,280.331238 248.385025,283.500366 253.030731,282.273438 
	C258.323029,280.875702 258.929016,276.618744 258.835938,271.236633 
	C257.848938,262.234100 253.325333,255.677917 246.099808,250.159637 
	C242.548096,247.447144 239.488693,242.845459 238.307175,238.524338 
	C235.560028,228.477417 236.132767,218.366440 242.749054,208.827988 
	C247.701065,204.493942 252.409882,204.266113 258.372772,207.808899 
	C270.523834,215.028305 281.257782,211.587402 287.519257,199.444290 
	C288.034027,198.445984 288.827698,197.540665 289.652496,196.762451 
	C292.247314,194.314133 292.819550,191.834396 289.881409,188.425491 
	C288.004700,185.701706 285.685181,185.311478 282.277771,187.332336 
	C276.803558,190.236206 276.196442,192.906006 280.730255,196.996033 
	C283.430420,199.431900 282.603821,201.096756 280.720032,203.123657 
	C274.639465,209.666290 259.433990,206.764221 256.376373,197.979294 
	C260.409515,194.517548 264.924957,191.468430 268.339447,187.477386 
	C271.718231,183.528076 275.735626,178.859879 276.366730,174.095566 
	C277.578217,164.949448 277.210571,155.455383 276.359070,146.210541 
	C275.334656,135.087646 268.231934,129.738831 257.126099,130.893906 
	C243.993896,132.259720 232.836365,138.519135 221.489365,146.054916 
	C220.062943,147.835739 217.769119,149.434509 217.350922,151.426956 
	C214.645660,164.315582 214.485306,176.922943 223.592590,187.840317 
	C226.377319,191.178513 229.637115,193.974380 234.313141,192.459991 
	C238.751999,191.022415 240.529022,187.284821 241.305191,182.127029 
	C241.221222,175.344833 240.715042,168.532379 241.198135,161.790817 
	C241.533630,157.108856 243.025604,152.458694 244.476486,147.947296 
	C244.798157,146.946991 247.120712,146.590179 248.521957,145.937057 
	C248.985672,147.372604 249.926865,148.841568 249.829163,150.237839 
	C249.438324,155.823761 248.477844,161.374741 248.198044,166.962189 
	C247.899933,172.914795 248.132828,178.893997 247.771072,185.492035 
	C247.048996,187.163300 246.468063,188.913727 245.582031,190.493027 
	C239.627274,201.107117 228.551605,202.428146 220.073868,193.582977 
	C219.084427,192.550629 218.100784,191.512695 216.816757,190.164871 
	C204.797073,204.474152 195.187775,219.712769 189.004196,236.866852 
	C184.703888,248.796524 182.112610,261.149963 184.231796,274.692535 
	C184.372406,275.129181 184.513016,275.565826 184.534943,276.514374 
	C184.716339,276.998505 184.897736,277.482666 184.918213,278.655151 
	C183.791580,278.734314 182.477493,279.224274 181.574936,278.812408 
	C179.258087,277.755249 177.123932,276.297729 174.671509,274.524689 
	C173.929596,274.689026 173.187683,274.853394 172.222290,275.673004 
	C172.231583,276.130920 172.240875,276.588837 172.115967,277.772278 
	C172.452286,279.166443 172.788605,280.560608 173.137894,282.672729 
	C174.946747,288.069916 177.951782,292.280396 184.577240,293.872101 
	C197.712143,293.869385 210.847031,293.866699 224.655762,293.907867 
M340.542236,276.735687 
	C340.959930,275.817749 341.377625,274.899811 342.224701,273.401855 
	C343.277954,271.169037 344.331207,268.936249 345.881714,266.300079 
	C346.205994,265.529266 346.530273,264.758484 347.283875,263.445007 
	C350.380981,257.373505 353.601013,251.360825 356.542816,245.214981 
	C359.922180,238.155014 357.839233,234.693344 350.091034,234.574341 
	C340.114197,234.421112 330.062622,235.280334 320.171967,234.343948 
	C307.851410,233.177521 300.774689,237.866638 296.084625,249.287186 
	C290.924500,261.852325 284.067566,273.720581 277.035919,286.123199 
	C266.573639,286.315796 256.110992,286.491241 245.649414,286.716095 
	C243.662918,286.758789 241.530777,286.601929 239.747025,287.278473 
	C238.476669,287.760284 236.881378,289.493378 236.893570,290.652649 
	C236.905624,291.799225 238.559021,293.490387 239.840546,293.931610 
	C241.819763,294.613037 244.095016,294.590668 246.245300,294.595215 
	C270.209106,294.645966 294.173035,294.654480 318.136902,294.634888 
	C319.778076,294.633545 321.418976,294.316406 323.817871,294.246857 
	C325.554779,293.519104 327.291687,292.791382 329.564331,291.748901 
	C329.965759,290.826111 330.367157,289.903320 331.196777,288.520782 
	C331.786102,287.925598 332.375427,287.330414 333.606659,286.609497 
	C335.630280,283.725433 337.653870,280.841370 339.937378,277.559509 
	C339.937378,277.559509 340.044159,277.096466 340.542236,276.735687 
M532.594543,177.875565 
	C524.847717,182.490295 521.643677,190.693298 523.505432,201.145477 
	C525.163147,210.451904 530.969238,215.299164 540.870300,215.642471 
	C550.662537,215.981995 557.592224,211.552231 559.190857,202.466110 
	C560.104492,197.273483 559.498169,191.588486 558.463989,186.344513 
	C557.521912,181.567535 553.778198,177.845016 548.918091,177.211655 
	C543.823547,176.547745 538.531616,177.397491 532.594543,177.875565 
M441.151733,177.538437 
	C437.759827,175.316299 434.442749,177.148254 434.112854,181.650269 
	C433.873413,184.918274 434.066101,188.217941 434.066101,191.413483 
	C428.759857,191.413483 424.029388,191.413483 418.956818,191.413483 
	C418.956818,186.468002 418.956818,181.850891 418.956818,176.943726 
	C415.848480,176.943726 413.095459,176.943726 410.247162,176.943726 
	C410.247162,189.652237 410.247162,202.058411 410.247162,214.621613 
	C413.246582,214.621613 415.939575,214.621613 419.108154,214.621613 
	C419.108154,209.492065 419.108154,204.738144 419.108154,200.014008 
	C424.315460,200.014008 429.035187,200.014008 434.267151,200.014008 
	C434.267151,205.086716 434.267151,209.826965 434.267151,214.752960 
	C437.370422,214.752960 439.949951,214.752960 443.023651,214.752960 
	C443.023651,203.075974 443.046326,191.643173 442.968658,180.211029 
	C442.963898,179.508636 442.166687,178.811600 441.151733,177.538437 
M491.071716,176.691315 
	C488.799774,176.691315 486.527832,176.691315 484.292603,176.691315 
	C484.292603,189.758469 484.292603,202.162643 484.292603,214.573181 
	C487.344604,214.573181 490.035156,214.573181 493.190735,214.573181 
	C493.190735,209.390121 493.190735,204.635132 493.190735,199.864914 
	C498.285339,199.864914 502.902771,199.864914 508.193970,199.864914 
	C508.193970,204.911957 508.193970,209.787384 508.193970,214.709274 
	C511.455139,214.709274 514.036499,214.709274 517.121338,214.709274 
	C517.121338,203.311417 517.327820,192.194672 516.912964,181.101166 
	C516.845764,179.304794 514.019958,177.611588 512.469238,175.870697 
	C511.003052,177.724640 508.734863,179.394882 508.258301,181.475510 
	C507.539215,184.615005 508.070740,188.040939 508.070740,191.515182 
	C502.878967,191.515182 498.137878,191.515182 493.021057,191.515182 
	C493.021057,189.476547 493.148438,187.655777 492.992371,185.859619 
	C492.731201,182.854141 492.289154,179.864365 491.071716,176.691315 
M575.825012,182.995346 
	C575.911438,179.446396 574.340881,175.978287 570.952637,176.187408 
	C567.691284,176.388718 566.461548,179.915985 566.599854,183.504303 
	C566.862305,190.313873 566.718384,197.138702 566.957092,203.949707 
	C567.119568,208.586121 568.976807,213.161469 573.638245,213.959641 
	C579.338623,214.935669 585.434937,214.809143 591.175293,213.939896 
	C595.391418,213.301468 597.683838,209.184204 597.933167,204.995438 
	C598.397217,197.203568 598.605469,189.360703 598.194580,181.577347 
	C598.090271,179.600769 595.256165,177.768280 593.676208,175.869568 
	C592.199768,177.727188 590.542847,179.476456 589.331787,181.493454 
	C588.816223,182.352188 589.234558,183.770905 589.226074,184.935089 
	C589.187378,190.256607 589.165100,195.578323 589.103210,200.899582 
	C589.052734,205.232529 587.110291,207.881989 582.511963,207.877136 
	C577.894104,207.872269 576.001282,205.144730 575.939453,200.857880 
	C575.857971,195.204224 575.859863,189.549347 575.825012,182.995346 
M395.115540,198.270798 
	C395.115540,201.086914 395.115540,203.903015 395.115540,206.661392 
	C390.910553,208.788239 387.250061,208.248917 384.145905,205.510483 
	C379.694519,201.583588 379.590485,190.228745 383.886932,186.176102 
	C386.877808,183.354950 390.237305,183.135452 393.963654,185.088654 
	C396.267212,186.296051 398.887482,186.899155 401.541290,187.835526 
	C402.752106,183.219437 402.900421,180.047974 398.981873,177.829941 
	C388.682373,172.000061 374.241089,177.844788 371.920929,189.340591 
	C368.611053,205.739960 374.462250,217.728760 394.803619,215.336243 
	C394.969086,215.316772 395.134094,215.293701 395.299408,215.273163 
	C403.713196,214.228256 404.106201,213.795502 404.106049,205.572372 
	C404.106018,203.906403 404.547394,202.075745 404.002808,200.612213 
	C403.139771,198.293015 401.616730,196.219391 400.372955,194.041870 
	C398.729065,195.197800 397.085205,196.353729 395.115540,198.270798 
M609.066528,178.392059 
	C601.405212,185.363419 602.994019,194.483917 612.552063,198.454422 
	C614.698669,199.346176 617.032471,199.998367 618.879639,201.320358 
	C619.985229,202.111557 620.930603,204.056915 620.787231,205.355377 
	C620.681152,206.316299 618.734436,207.712631 617.552795,207.769226 
	C615.699036,207.858002 613.821960,206.783157 611.912903,206.561066 
	C609.390686,206.267654 605.131531,205.405075 604.596069,206.395920 
	C602.888428,209.555908 604.666504,213.163956 608.080627,213.818146 
	C612.986633,214.758209 618.272583,215.187958 623.154053,214.376968 
	C628.221680,213.535034 630.627075,209.218964 630.939209,204.027618 
	C631.248291,198.886581 628.905273,195.438446 624.217773,193.499054 
	C622.221924,192.673294 620.157654,191.997360 618.212341,191.069138 
	C616.027344,190.026535 612.735168,188.837479 614.837891,185.912369 
	C615.824219,184.540314 619.373047,184.571732 621.708801,184.730179 
	C624.097168,184.892227 626.422180,185.988388 628.902161,186.712799 
	C629.866150,179.533020 628.757996,177.305725 622.829590,176.721542 
	C618.550476,176.299911 614.108582,177.529892 609.066528,178.392059 
M100.731720,206.928207 
	C95.511597,202.355865 94.073555,193.180908 97.683952,187.482773 
	C100.063484,183.727249 104.295967,182.952438 108.028511,185.088989 
	C110.258675,186.365524 112.922615,186.884247 115.538681,187.794830 
	C116.883926,179.986542 114.670059,176.850937 107.773872,176.143768 
	C100.069626,175.353699 93.114952,176.776947 88.805229,184.140778 
	C84.632629,191.270294 85.104195,204.753342 90.025169,210.217804 
	C95.762169,216.588394 103.260986,216.529724 110.801842,214.713242 
	C116.469086,213.348099 117.847496,210.454681 116.344063,203.094406 
	C113.578941,204.277237 111.112709,205.621613 108.477280,206.371002 
	C106.235916,207.008347 103.799576,206.959991 100.731720,206.928207 
M637.044189,181.150421 
	C637.020020,190.302139 637.039185,199.454285 636.952576,208.605408 
	C636.911377,212.965271 638.889404,215.070602 643.284851,214.994659 
	C647.110840,214.928558 650.977783,215.328796 654.752441,214.887955 
	C657.149902,214.607971 659.411865,213.166946 661.762329,212.235580 
	C659.459900,207.187668 656.112549,207.373749 652.715820,207.398682 
	C645.780334,207.449600 645.525818,207.084915 646.460205,199.825256 
	C650.731689,198.207840 656.790710,201.861359 659.586243,195.623428 
	C656.665894,189.414505 650.638672,193.212036 646.359436,191.519119 
	C645.650452,184.268555 645.794861,183.988098 652.860413,184.126984 
	C656.231262,184.193222 659.052612,183.763489 660.487793,180.309402 
	C657.036621,176.113098 641.713989,174.933380 638.055542,178.527069 
	C637.612122,178.962631 637.459412,179.694122 637.044189,181.150421 
M176.018433,189.559296 
	C175.368576,184.970764 177.689224,183.682465 181.857559,184.028595 
	C185.316696,184.315842 188.921753,184.504547 190.749496,179.597427 
	C189.179108,178.640686 187.619568,176.933945 185.947235,176.815140 
	C181.144165,176.473984 176.258301,176.453827 171.485611,177.005386 
	C169.898453,177.188812 167.335510,179.450058 167.293793,180.824356 
	C166.952225,192.077744 167.101242,203.346024 167.101242,214.726044 
	C170.261520,214.726044 172.845322,214.726044 175.969727,214.726044 
	C175.969727,209.897873 175.969727,205.319214 175.969727,200.906876 
	C180.682907,198.987961 186.808212,202.773285 189.388290,196.545731 
	C187.412582,192.102966 183.655258,193.022705 180.235596,192.840942 
	C178.535538,192.750580 175.854248,193.981903 176.018433,189.559296 
M470.629883,184.088867 
	C474.446198,183.933090 478.790863,185.176956 480.853668,180.305801 
	C476.111908,174.621826 451.300415,174.959991 447.975342,180.680344 
	C450.382019,185.995422 455.623474,183.145981 460.015991,184.672256 
	C460.015991,194.678879 460.015991,204.728836 460.015991,214.646866 
	C463.269257,214.646866 465.845795,214.646866 468.928833,214.646866 
	C468.928833,209.508469 468.827576,204.714035 468.956024,199.925751 
	C469.096832,194.677551 469.449677,189.435013 470.629883,184.088867 
M139.233795,215.009491 
	C142.718170,215.301910 145.801178,214.835587 147.130051,211.227570 
	C145.006729,206.548126 141.069473,207.303513 137.502609,207.495209 
	C133.541138,207.708099 131.729584,206.472031 131.942154,202.133591 
	C132.258865,195.669678 132.429581,189.139694 131.813309,182.719330 
	C131.582108,180.310776 128.975449,178.130219 127.451820,175.845718 
	C125.951385,178.149246 123.439690,180.335068 123.155106,182.780121 
	C122.506424,188.353424 122.953377,194.053833 122.948479,199.702591 
	C122.934158,216.207932 121.653038,215.038177 139.233795,215.009491 
M328.949219,202.442688 
	C328.950439,204.103287 328.931610,205.764175 328.956390,207.424423 
	C329.050476,213.732117 330.225250,214.913834 336.569122,214.996201 
	C339.889771,215.039322 343.258026,215.346191 346.517212,214.897736 
	C348.941803,214.564102 351.225769,213.208054 353.625061,212.287155 
	C351.164886,206.723816 347.296265,207.222931 343.709625,207.494415 
	C339.444702,207.817230 337.731903,206.303741 337.942719,201.846130 
	C338.256226,195.218658 338.366669,188.536636 337.820160,181.939423 
	C337.644592,179.819901 335.119751,177.894974 333.669678,175.881012 
	C332.097168,177.930481 330.437531,179.922012 329.009979,182.067902 
	C328.626801,182.643890 328.949493,183.690018 328.949463,184.520309 
	C328.949188,190.166321 328.949280,195.812347 328.949219,202.442688 
M355.956543,199.495743 
	C355.956543,204.581970 355.956543,209.668182 355.956543,214.668625 
	C359.375458,214.668625 361.959625,214.668625 365.015350,214.668625 
	C365.015350,203.727142 365.259064,193.102051 364.819977,182.505249 
	C364.726562,180.250671 362.146790,178.099121 360.712494,175.900116 
	C359.128204,178.106293 356.490082,180.172668 356.175018,182.547256 
	C355.480530,187.781708 355.957581,193.171616 355.956543,199.495743 
M149.956833,184.763885 
	C149.956833,194.699036 149.956833,204.634186 149.956833,214.565338 
	C153.340988,214.565338 156.035629,214.565338 159.009659,214.565338 
	C159.009659,203.317245 159.240479,192.494339 158.802063,181.698593 
	C158.720795,179.697617 155.941162,177.806259 154.406921,175.864304 
	C152.928040,177.689850 151.353149,179.449615 150.029633,181.381607 
	C149.639908,181.950485 149.961700,183.006790 149.956833,184.763885 
M288.955231,174.756668 
	C292.073364,172.425446 291.846710,169.679123 289.473724,167.154526 
	C289.003540,166.654312 286.240997,167.177567 285.900085,167.885742 
	C284.529694,170.732208 283.949951,173.747696 288.955231,174.756668 
z"/>
<path fill="#E32833" opacity="1.000000" stroke="none" 
	d="
M329.028595,292.063629 
	C327.291687,292.791382 325.554779,293.519104 323.110596,293.932587 
	C313.891388,293.172791 305.231049,291.558563 296.909851,292.615173 
	C288.824005,293.641876 283.885651,289.118011 277.949860,285.892456 
	C284.067566,273.720581 290.924500,261.852325 296.084625,249.287186 
	C300.774689,237.866638 307.851410,233.177521 320.171967,234.343948 
	C330.062622,235.280334 340.114197,234.421112 350.091034,234.574341 
	C357.839233,234.693344 359.922180,238.155014 356.542816,245.214981 
	C353.601013,251.360825 350.380981,257.373505 346.751343,263.848236 
	C345.940674,265.068787 345.662567,265.886108 345.384430,266.703430 
	C344.331207,268.936249 343.277954,271.169037 341.705872,273.807495 
	C340.806061,275.174255 340.425110,276.135376 340.044159,277.096466 
	C340.044159,277.096466 339.937378,277.559509 339.461243,277.789612 
	C336.978333,280.924896 334.971558,283.830048 332.964752,286.735229 
	C332.375427,287.330414 331.786102,287.925598 330.682800,288.866516 
	C329.788727,290.162720 329.408661,291.113190 329.028595,292.063629 
M325.662537,249.339233 
	C322.039459,248.710449 320.090820,250.579102 318.948181,253.760178 
	C317.870575,256.760345 316.199005,258.780670 312.532867,258.929138 
	C306.242828,259.183868 304.215424,261.562988 303.707977,268.535065 
	C306.057678,268.754974 308.411469,268.975250 311.193604,269.235626 
	C310.021790,272.192108 309.090729,274.541107 308.126190,276.974609 
	C317.391357,278.834167 318.125183,278.419952 322.192383,271.517639 
	C322.939697,270.249420 324.853760,269.096771 326.342804,268.934814 
	C333.429321,268.163818 335.037811,266.759766 336.072723,259.232635 
	C333.747040,258.959473 331.413300,258.685364 328.729492,258.370117 
	C329.920837,255.184448 330.865936,252.657166 332.108551,249.334351 
	C329.699158,249.334351 328.098206,249.334351 325.662537,249.339233 
z"/>
<path fill="#FC7A75" opacity="1.000000" stroke="none" 
	d="
M222.185333,145.832657 
	C232.836365,138.519135 243.993896,132.259720 257.126099,130.893906 
	C268.231934,129.738831 275.334656,135.087646 276.359070,146.210541 
	C277.210571,155.455383 277.578217,164.949448 276.366730,174.095566 
	C275.735626,178.859879 271.718231,183.528076 268.339447,187.477386 
	C264.924957,191.468430 260.409515,194.517548 255.748062,198.049591 
	C249.753250,195.301132 249.526703,189.774109 248.133896,184.861588 
	C248.132828,178.893997 247.899933,172.914795 248.198044,166.962189 
	C248.477844,161.374741 249.438324,155.823761 249.829163,150.237839 
	C249.926865,148.841568 248.985672,147.372604 248.521957,145.937073 
	C247.120712,146.590179 244.798157,146.946991 244.476486,147.947296 
	C243.025604,152.458694 241.533630,157.108856 241.198135,161.790817 
	C240.715042,168.532379 241.221222,175.344833 240.753723,182.491333 
	C238.467209,182.416382 236.577896,182.280334 235.022141,181.488724 
	C224.816559,176.295853 214.907852,163.726822 222.185333,145.832657 
M267.918182,174.469009 
	C269.880493,171.961563 270.581757,169.194397 267.848267,167.051422 
	C266.803070,166.232010 263.561768,166.259537 263.156952,166.960815 
	C262.131531,168.737122 261.473297,171.262238 261.904633,173.214157 
	C262.519226,175.995331 264.864807,176.478455 267.918182,174.469009 
z"/>
<path fill="#FC7974" opacity="1.000000" stroke="none" 
	d="
M242.151703,209.226501 
	C236.132767,218.366440 235.560028,228.477417 238.307175,238.524338 
	C239.488693,242.845459 242.548096,247.447144 246.099808,250.159637 
	C253.325333,255.677917 257.848938,262.234100 258.419098,271.656250 
	C256.272827,271.984131 254.157028,271.211700 252.888519,271.931854 
	C249.473694,273.870392 247.712631,272.224976 246.793579,269.477173 
	C244.718628,263.273468 240.615570,260.885254 234.300964,261.922913 
	C231.638428,251.901566 226.420547,243.884460 216.200623,240.355835 
	C208.830582,237.811188 201.763000,238.837723 195.008011,243.654022 
	C198.505615,233.983063 202.338394,224.360168 206.598663,214.930389 
	C207.196732,213.606613 209.826172,212.716553 211.621567,212.497864 
	C221.780365,211.260391 231.971542,210.288696 242.151703,209.226501 
z"/>
<path fill="#E02A35" opacity="1.000000" stroke="none" 
	d="
M242.450378,209.027252 
	C231.971542,210.288696 221.780365,211.260391 211.621567,212.497864 
	C209.826172,212.716553 207.196732,213.606613 206.598663,214.930389 
	C202.338394,224.360168 198.505615,233.983063 194.697968,243.844482 
	C191.206146,248.794937 188.090485,253.637314 189.316925,260.638245 
	C189.342285,265.183990 189.250244,269.080200 188.800446,273.033630 
	C187.062897,273.394318 185.683105,273.697754 184.303314,274.001221 
	C182.112610,261.149963 184.703888,248.796524 189.004196,236.866852 
	C195.187775,219.712769 204.797073,204.474152 216.816757,190.164871 
	C218.100784,191.512695 219.084427,192.550629 220.073868,193.582977 
	C228.551605,202.428146 239.627274,201.107117 245.582031,190.493027 
	C246.468063,188.913727 247.048996,187.163300 247.952484,185.176819 
	C249.526703,189.774109 249.753250,195.301132 255.438721,198.241791 
	C259.433990,206.764221 274.639465,209.666290 280.720032,203.123657 
	C282.603821,201.096756 283.430420,199.431900 280.730255,196.996033 
	C276.196442,192.906006 276.803558,190.236206 282.646423,187.603607 
	C284.077332,189.223953 284.910706,191.157547 286.289795,191.697556 
	C287.085724,192.009201 288.762665,190.070755 290.043060,189.145050 
	C292.819550,191.834396 292.247314,194.314133 289.652496,196.762451 
	C288.827698,197.540665 288.034027,198.445984 287.519257,199.444290 
	C281.257782,211.587402 270.523834,215.028305 258.372772,207.808899 
	C252.409882,204.266113 247.701065,204.493942 242.450378,209.027252 
z"/>
<path fill="#FD7B75" opacity="1.000000" stroke="none" 
	d="
M189.158203,272.976440 
	C189.250244,269.080200 189.342285,265.183990 189.566040,260.975159 
	C191.895966,257.770660 193.610596,254.261276 196.376923,252.094833 
	C207.733322,243.201126 221.259491,247.586472 226.037521,261.797089 
	C227.427200,265.930237 227.163284,270.619324 227.153961,275.475647 
	C214.305573,272.204865 204.945129,278.045746 195.764725,286.453796 
	C193.875397,283.240875 192.330765,280.614105 190.783340,277.657288 
	C190.255722,276.113861 189.730896,274.900513 189.225235,273.507385 
	C189.244400,273.327606 189.158203,272.976440 189.158203,272.976440 
z"/>
<path fill="#F9FAFA" opacity="1.000000" stroke="none" 
	d="
M532.960266,177.730621 
	C538.531616,177.397491 543.823547,176.547745 548.918091,177.211655 
	C553.778198,177.845016 557.521912,181.567535 558.463989,186.344513 
	C559.498169,191.588486 560.104492,197.273483 559.190857,202.466110 
	C557.592224,211.552231 550.662537,215.981995 540.870300,215.642471 
	C530.969238,215.299164 525.163147,210.451904 523.505432,201.145477 
	C521.643677,190.693298 524.847717,182.490295 532.960266,177.730621 
M545.972595,206.718216 
	C550.505859,202.273926 552.326355,193.772064 549.041504,188.496628 
	C547.707275,186.353867 544.427246,184.204941 542.068665,184.243820 
	C539.460693,184.286819 535.442749,186.278275 534.628113,188.410431 
	C533.181580,192.196167 532.861206,196.874008 533.572449,200.914078 
	C534.637817,206.965973 539.008667,208.826385 545.972595,206.718216 
z"/>
<path fill="#FCFCFD" opacity="1.000000" stroke="none" 
	d="
M441.444977,177.825256 
	C442.166687,178.811600 442.963898,179.508636 442.968658,180.211029 
	C443.046326,191.643173 443.023651,203.075974 443.023651,214.752960 
	C439.949951,214.752960 437.370422,214.752960 434.267151,214.752960 
	C434.267151,209.826965 434.267151,205.086716 434.267151,200.014008 
	C429.035187,200.014008 424.315460,200.014008 419.108154,200.014008 
	C419.108154,204.738144 419.108154,209.492065 419.108154,214.621613 
	C415.939575,214.621613 413.246582,214.621613 410.247162,214.621613 
	C410.247162,202.058411 410.247162,189.652237 410.247162,176.943726 
	C413.095459,176.943726 415.848480,176.943726 418.956818,176.943726 
	C418.956818,181.850891 418.956818,186.468002 418.956818,191.413483 
	C424.029388,191.413483 428.759857,191.413483 434.066101,191.413483 
	C434.066101,188.217941 433.873413,184.918274 434.112854,181.650269 
	C434.442749,177.148254 437.759827,175.316299 441.444977,177.825256 
z"/>
<path fill="#FCFCFD" opacity="1.000000" stroke="none" 
	d="
M491.497467,176.779648 
	C492.289154,179.864365 492.731201,182.854141 492.992371,185.859619 
	C493.148438,187.655777 493.021057,189.476547 493.021057,191.515182 
	C498.137878,191.515182 502.878967,191.515182 508.070740,191.515182 
	C508.070740,188.040939 507.539215,184.615005 508.258301,181.475510 
	C508.734863,179.394882 511.003052,177.724640 512.469238,175.870697 
	C514.019958,177.611588 516.845764,179.304794 516.912964,181.101166 
	C517.327820,192.194672 517.121338,203.311417 517.121338,214.709274 
	C514.036499,214.709274 511.455139,214.709274 508.193970,214.709274 
	C508.193970,209.787384 508.193970,204.911957 508.193970,199.864914 
	C502.902771,199.864914 498.285339,199.864914 493.190735,199.864914 
	C493.190735,204.635132 493.190735,209.390121 493.190735,214.573181 
	C490.035156,214.573181 487.344604,214.573181 484.292603,214.573181 
	C484.292603,202.162643 484.292603,189.758469 484.292603,176.691315 
	C486.527832,176.691315 488.799774,176.691315 491.497467,176.779648 
z"/>
<path fill="#F8F9FA" opacity="1.000000" stroke="none" 
	d="
M575.825439,183.445175 
	C575.859863,189.549347 575.857971,195.204224 575.939453,200.857880 
	C576.001282,205.144730 577.894104,207.872269 582.511963,207.877136 
	C587.110291,207.881989 589.052734,205.232529 589.103210,200.899582 
	C589.165100,195.578323 589.187378,190.256607 589.226074,184.935089 
	C589.234558,183.770905 588.816223,182.352188 589.331787,181.493454 
	C590.542847,179.476456 592.199768,177.727188 593.676270,175.869568 
	C595.256165,177.768280 598.090271,179.600769 598.194580,181.577347 
	C598.605469,189.360703 598.397217,197.203568 597.933167,204.995438 
	C597.683838,209.184204 595.391418,213.301468 591.175293,213.939896 
	C585.434937,214.809143 579.338623,214.935669 573.638245,213.959641 
	C568.976807,213.161469 567.119568,208.586121 566.957092,203.949707 
	C566.718384,197.138702 566.862305,190.313873 566.599854,183.504303 
	C566.461548,179.915985 567.691284,176.388718 570.952637,176.187408 
	C574.340881,175.978287 575.911438,179.446396 575.825439,183.445175 
z"/>
<path fill="#F9FAFA" opacity="1.000000" stroke="none" 
	d="
M395.278442,197.890228 
	C397.085205,196.353729 398.729065,195.197800 400.372955,194.041870 
	C401.616730,196.219391 403.139771,198.293015 404.002808,200.612213 
	C404.547394,202.075745 404.106018,203.906403 404.106049,205.572372 
	C404.106201,213.795502 403.713196,214.228256 395.299408,215.273163 
	C395.134094,215.293701 394.969086,215.316772 394.803619,215.336243 
	C374.462250,217.728760 368.611053,205.739960 371.920929,189.340591 
	C374.241089,177.844788 388.682373,172.000061 398.981873,177.829941 
	C402.900421,180.047974 402.752106,183.219437 401.541290,187.835526 
	C398.887482,186.899155 396.267212,186.296051 393.963654,185.088654 
	C390.237305,183.135452 386.877808,183.354950 383.886932,186.176102 
	C379.590485,190.228745 379.694519,201.583588 384.145905,205.510483 
	C387.250061,208.248917 390.910553,208.788239 395.115540,206.661392 
	C395.115540,203.903015 395.115540,201.086914 395.278442,197.890228 
z"/>
<path fill="#F8F9FA" opacity="1.000000" stroke="none" 
	d="
M609.402954,178.207642 
	C614.108582,177.529892 618.550476,176.299911 622.829590,176.721542 
	C628.757996,177.305725 629.866150,179.533020 628.902161,186.712799 
	C626.422180,185.988388 624.097168,184.892227 621.708801,184.730179 
	C619.373047,184.571732 615.824219,184.540314 614.837891,185.912369 
	C612.735168,188.837479 616.027344,190.026535 618.212341,191.069138 
	C620.157654,191.997360 622.221924,192.673294 624.217773,193.499054 
	C628.905273,195.438446 631.248291,198.886581 630.939209,204.027618 
	C630.627075,209.218964 628.221680,213.535034 623.154053,214.376968 
	C618.272583,215.187958 612.986633,214.758209 608.080627,213.818146 
	C604.666504,213.163956 602.888428,209.555908 604.596069,206.395920 
	C605.131531,205.405075 609.390686,206.267654 611.912903,206.561066 
	C613.821960,206.783157 615.699036,207.858002 617.552795,207.769226 
	C618.734436,207.712631 620.681152,206.316299 620.787231,205.355377 
	C620.930603,204.056915 619.985229,202.111557 618.879639,201.320358 
	C617.032471,199.998367 614.698669,199.346176 612.552063,198.454422 
	C602.994019,194.483917 601.405212,185.363419 609.402954,178.207642 
z"/>
<path fill="#F8F9FA" opacity="1.000000" stroke="none" 
	d="
M101.090607,207.071609 
	C103.799576,206.959991 106.235916,207.008347 108.477280,206.371002 
	C111.112709,205.621613 113.578941,204.277237 116.344063,203.094406 
	C117.847496,210.454681 116.469086,213.348099 110.801842,214.713242 
	C103.260986,216.529724 95.762169,216.588394 90.025169,210.217804 
	C85.104195,204.753342 84.632629,191.270294 88.805229,184.140778 
	C93.114952,176.776947 100.069626,175.353699 107.773872,176.143768 
	C114.670059,176.850937 116.883926,179.986542 115.538681,187.794830 
	C112.922615,186.884247 110.258675,186.365524 108.028511,185.088989 
	C104.295967,182.952438 100.063484,183.727249 97.683952,187.482773 
	C94.073555,193.180908 95.511597,202.355865 101.090607,207.071609 
z"/>
<path fill="#FBFCFC" opacity="1.000000" stroke="none" 
	d="
M637.108032,180.719452 
	C637.459412,179.694122 637.612122,178.962631 638.055542,178.527069 
	C641.713989,174.933380 657.036621,176.113098 660.487793,180.309402 
	C659.052612,183.763489 656.231262,184.193222 652.860413,184.126984 
	C645.794861,183.988098 645.650452,184.268555 646.359436,191.519119 
	C650.638672,193.212036 656.665894,189.414505 659.586243,195.623428 
	C656.790710,201.861359 650.731689,198.207840 646.460205,199.825256 
	C645.525818,207.084915 645.780334,207.449600 652.715820,207.398682 
	C656.112549,207.373749 659.459900,207.187668 661.762329,212.235580 
	C659.411865,213.166946 657.149902,214.607971 654.752441,214.887955 
	C650.977783,215.328796 647.110840,214.928558 643.284851,214.994659 
	C638.889404,215.070602 636.911377,212.965271 636.952576,208.605408 
	C637.039185,199.454285 637.020020,190.302139 637.108032,180.719452 
z"/>
<path fill="#E42934" opacity="1.000000" stroke="none" 
	d="
M190.786133,277.987335 
	C192.330765,280.614105 193.875397,283.240875 195.764725,286.453796 
	C204.945129,278.045746 214.305573,272.204865 227.027908,275.905853 
	C228.512955,279.337036 229.620667,282.760101 230.268982,286.578369 
	C228.627563,287.244019 227.445557,287.514435 226.032547,287.837708 
	C226.850281,289.564636 227.407028,290.740387 227.963776,291.916138 
	C226.861099,292.580048 225.758438,293.243958 224.303009,293.514832 
	C223.565384,288.929077 220.423294,288.154083 217.171341,288.085052 
	C209.440247,287.920868 201.674759,287.636353 193.981094,288.196259 
	C190.237503,288.468719 185.347626,288.202454 183.925095,293.546112 
	C177.951782,292.280396 174.946747,288.069916 173.387085,282.138245 
	C176.117615,279.189453 174.112350,278.139862 172.250168,277.046753 
	C172.240875,276.588837 172.231583,276.130920 172.643066,275.342834 
	C173.681473,275.008514 174.299118,275.004364 174.916748,275.000214 
	C177.123932,276.297729 179.258087,277.755249 181.574936,278.812408 
	C182.477493,279.224274 183.791580,278.734314 185.149872,278.152954 
	C185.138885,277.101349 184.896240,276.551910 184.653610,276.002472 
	C184.513016,275.565826 184.372406,275.129181 184.267548,274.346863 
	C185.683105,273.697754 187.062897,273.394318 188.800446,273.033630 
	C189.158203,272.976440 189.244400,273.327606 189.063477,273.838959 
	C187.830841,276.445221 188.040070,277.880157 190.786133,277.987335 
z"/>
<path fill="#E22A35" opacity="1.000000" stroke="none" 
	d="
M283.510712,253.154526 
	C282.459320,258.268250 281.967712,263.590881 280.164032,268.423859 
	C278.916046,271.767822 275.357727,273.512878 271.410339,272.585999 
	C267.276978,271.615448 264.423981,268.279938 265.213989,264.642242 
	C267.263184,255.206818 261.225220,251.305099 254.990005,247.093109 
	C252.817383,245.625473 250.857819,243.842453 249.262009,242.570847 
	C254.154587,235.436829 258.790497,228.677094 263.729736,222.172455 
	C263.200836,231.440948 264.295319,239.796341 270.849701,246.889633 
	C272.758575,248.955490 273.218658,252.301086 274.637970,254.898834 
	C275.601013,256.661469 277.078705,258.142914 278.326233,259.750122 
	C279.813385,258.165100 281.340698,256.614899 282.762238,254.973068 
	C283.169098,254.503143 283.269684,253.768036 283.510712,253.154526 
z"/>
<path fill="#FEFEFE" opacity="1.000000" stroke="none" 
	d="
M176.019455,190.004501 
	C175.854248,193.981903 178.535538,192.750580 180.235596,192.840942 
	C183.655258,193.022705 187.412582,192.102966 189.388290,196.545731 
	C186.808212,202.773285 180.682907,198.987961 175.969727,200.906876 
	C175.969727,205.319214 175.969727,209.897873 175.969727,214.726044 
	C172.845322,214.726044 170.261520,214.726044 167.101242,214.726044 
	C167.101242,203.346024 166.952225,192.077744 167.293793,180.824356 
	C167.335510,179.450058 169.898453,177.188812 171.485611,177.005386 
	C176.258301,176.453827 181.144165,176.473984 185.947235,176.815140 
	C187.619568,176.933945 189.179108,178.640686 190.749496,179.597427 
	C188.921753,184.504547 185.316696,184.315842 181.857559,184.028595 
	C177.689224,183.682465 175.368576,184.970764 176.019455,190.004501 
z"/>
<path fill="#FCFCFD" opacity="1.000000" stroke="none" 
	d="
M470.169983,184.139435 
	C469.449677,189.435013 469.096832,194.677551 468.956024,199.925751 
	C468.827576,204.714035 468.928833,209.508469 468.928833,214.646866 
	C465.845795,214.646866 463.269257,214.646866 460.015991,214.646866 
	C460.015991,204.728836 460.015991,194.678879 460.015991,184.672256 
	C455.623474,183.145981 450.382019,185.995422 447.975342,180.680344 
	C451.300415,174.959991 476.111908,174.621826 480.853668,180.305801 
	C478.790863,185.176956 474.446198,183.933090 470.169983,184.139435 
z"/>
<path fill="#D12B36" opacity="1.000000" stroke="none" 
	d="
M277.492889,286.007812 
	C283.885651,289.118011 288.824005,293.641876 296.909851,292.615173 
	C305.231049,291.558563 313.891388,293.172791 322.731689,293.882233 
	C321.418976,294.316406 319.778076,294.633545 318.136902,294.634888 
	C294.173035,294.654480 270.209106,294.645966 246.245300,294.595215 
	C244.095016,294.590668 241.819763,294.613037 239.840546,293.931610 
	C238.559021,293.490387 236.905624,291.799225 236.893570,290.652649 
	C236.881378,289.493378 238.476669,287.760284 239.747025,287.278473 
	C241.530777,286.601929 243.662918,286.758789 245.649414,286.716095 
	C256.110992,286.491241 266.573639,286.315796 277.492889,286.007812 
z"/>
<path fill="#FBFBFC" opacity="1.000000" stroke="none" 
	d="
M138.769104,215.009491 
	C121.653038,215.038177 122.934158,216.207932 122.948479,199.702591 
	C122.953377,194.053833 122.506424,188.353424 123.155106,182.780121 
	C123.439690,180.335068 125.951385,178.149246 127.451813,175.845718 
	C128.975449,178.130219 131.582108,180.310776 131.813309,182.719330 
	C132.429581,189.139694 132.258865,195.669678 131.942154,202.133591 
	C131.729584,206.472031 133.541138,207.708099 137.502609,207.495209 
	C141.069473,207.303513 145.006729,206.548126 147.130051,211.227570 
	C145.801178,214.835587 142.718170,215.301910 138.769104,215.009491 
z"/>
<path fill="#FBFBFC" opacity="1.000000" stroke="none" 
	d="
M328.949219,201.950531 
	C328.949280,195.812347 328.949188,190.166321 328.949463,184.520309 
	C328.949493,183.690018 328.626801,182.643890 329.009979,182.067902 
	C330.437531,179.922012 332.097168,177.930481 333.669678,175.881012 
	C335.119751,177.894974 337.644592,179.819901 337.820160,181.939423 
	C338.366669,188.536636 338.256226,195.218658 337.942719,201.846130 
	C337.731903,206.303741 339.444702,207.817230 343.709625,207.494415 
	C347.296265,207.222931 351.164886,206.723816 353.625061,212.287155 
	C351.225769,213.208054 348.941803,214.564102 346.517212,214.897736 
	C343.258026,215.346191 339.889771,215.039322 336.569122,214.996201 
	C330.225250,214.913834 329.050476,213.732117 328.956390,207.424423 
	C328.931610,205.764175 328.950439,204.103287 328.949219,201.950531 
z"/>
<path fill="#FB7874" opacity="1.000000" stroke="none" 
	d="
M283.574158,252.728943 
	C283.269684,253.768036 283.169098,254.503143 282.762238,254.973068 
	C281.340698,256.614899 279.813385,258.165100 278.326233,259.750122 
	C277.078705,258.142914 275.601013,256.661469 274.637970,254.898834 
	C273.218658,252.301086 272.758575,248.955490 270.849701,246.889633 
	C264.295319,239.796341 263.200836,231.440948 263.981262,221.908722 
	C264.430359,218.396835 265.764709,216.801041 269.650848,218.610046 
	C265.865143,225.715485 271.147980,229.254822 275.635712,233.219406 
	C281.356171,238.272980 283.831665,244.742081 283.574158,252.728943 
z"/>
<path fill="#E22A35" opacity="1.000000" stroke="none" 
	d="
M221.837341,145.943787 
	C214.907852,163.726822 224.816559,176.295853 235.022141,181.488724 
	C236.577896,182.280334 238.467209,182.416382 240.591370,182.851181 
	C240.529022,187.284821 238.751999,191.022415 234.313141,192.459991 
	C229.637115,193.974380 226.377319,191.178513 223.592590,187.840317 
	C214.485306,176.922943 214.645660,164.315582 217.350922,151.426956 
	C217.769119,149.434509 220.062943,147.835739 221.837341,145.943787 
z"/>
<path fill="#FEFEFE" opacity="1.000000" stroke="none" 
	d="
M355.956543,198.996918 
	C355.957581,193.171616 355.480530,187.781708 356.175018,182.547256 
	C356.490082,180.172668 359.128204,178.106293 360.712494,175.900116 
	C362.146790,178.099121 364.726562,180.250671 364.819977,182.505249 
	C365.259064,193.102051 365.015350,203.727142 365.015350,214.668625 
	C361.959625,214.668625 359.375458,214.668625 355.956543,214.668625 
	C355.956543,209.668182 355.956543,204.581970 355.956543,198.996918 
z"/>
<path fill="#FEFEFE" opacity="1.000000" stroke="none" 
	d="
M149.957123,184.301804 
	C149.961700,183.006790 149.639908,181.950485 150.029633,181.381607 
	C151.353149,179.449615 152.928040,177.689850 154.406921,175.864304 
	C155.941162,177.806259 158.720795,179.697617 158.802063,181.698593 
	C159.240479,192.494339 159.009659,203.317245 159.009659,214.565338 
	C156.035629,214.565338 153.340988,214.565338 149.956833,214.565338 
	C149.956833,204.634186 149.956833,194.699036 149.957123,184.301804 
z"/>
<path fill="#E02A35" opacity="1.000000" stroke="none" 
	d="
M307.974976,181.973709 
	C307.404114,184.483017 307.405853,187.367783 306.083588,189.384415 
	C304.999603,191.037643 302.419128,191.973358 300.319519,192.501053 
	C299.829651,192.624176 298.590027,189.813080 297.713867,188.341019 
	C295.505280,184.630234 295.882507,180.793945 296.087036,176.565521 
	C296.659760,164.726440 298.014954,152.562820 291.271881,141.440842 
	C296.432343,144.360352 298.917755,149.250351 299.818726,154.709915 
	C300.675507,159.901550 300.612885,165.247498 300.910400,170.528076 
	C301.198090,175.634338 302.718781,179.948792 307.974976,181.973709 
z"/>
<path fill="#E22A35" opacity="1.000000" stroke="none" 
	d="
M234.291504,262.318359 
	C240.615570,260.885254 244.718628,263.273468 246.793579,269.477173 
	C247.712631,272.224976 249.473694,273.870392 252.888519,271.931854 
	C254.157028,271.211700 256.272827,271.984131 258.371643,272.055328 
	C258.929016,276.618744 258.323029,280.875702 253.030731,282.273438 
	C248.385025,283.500366 242.949036,280.331238 240.722076,275.808167 
	C239.775558,273.885742 237.796173,272.467194 236.874298,270.538513 
	C235.698746,268.079163 235.118759,265.335114 234.291504,262.318359 
z"/>
<path fill="#F77470" opacity="1.000000" stroke="none" 
	d="
M308.050049,181.512848 
	C302.718781,179.948792 301.198090,175.634338 300.910400,170.528076 
	C300.612885,165.247498 300.675507,159.901550 299.818726,154.709915 
	C298.917755,149.250351 296.432343,144.360352 291.212219,141.078979 
	C290.863007,141.038010 290.947815,141.006409 290.862915,140.846619 
	C290.582336,140.441040 290.330231,140.288788 290.021637,140.230103 
	C289.090790,139.359924 288.159912,138.489761 287.229065,137.619598 
	C287.388763,137.330444 287.548431,137.041290 287.708130,136.752136 
	C289.289337,137.289307 291.021851,137.571518 292.427155,138.405212 
	C301.264526,143.648071 306.679443,151.272141 307.483612,161.651306 
	C307.982971,168.096069 307.930115,174.583618 308.050049,181.512848 
z"/>
<path fill="#D52A35" opacity="1.000000" stroke="none" 
	d="
M184.251160,293.709106 
	C185.347626,288.202454 190.237503,288.468719 193.981094,288.196259 
	C201.674759,287.636353 209.440247,287.920868 217.171341,288.085052 
	C220.423294,288.154083 223.565384,288.929077 223.966095,293.492920 
	C210.847031,293.866699 197.712143,293.869385 184.251160,293.709106 
z"/>
<path fill="#D52A35" opacity="1.000000" stroke="none" 
	d="
M288.593414,174.829834 
	C283.949951,173.747696 284.529694,170.732208 285.900085,167.885742 
	C286.240997,167.177567 289.003540,166.654312 289.473724,167.154526 
	C291.846710,169.679123 292.073364,172.425446 288.593414,174.829834 
z"/>
<path fill="#493A57" opacity="1.000000" stroke="none" 
	d="
M289.962219,188.785278 
	C288.762665,190.070755 287.085724,192.009201 286.289795,191.697556 
	C284.910706,191.157547 284.077332,189.223953 282.982666,187.492538 
	C285.685181,185.311478 288.004700,185.701706 289.962219,188.785278 
z"/>
<path fill="#D12B36" opacity="1.000000" stroke="none" 
	d="
M333.285706,286.672363 
	C334.971558,283.830048 336.978333,280.924896 339.331299,277.988525 
	C337.653870,280.841370 335.630280,283.725433 333.285706,286.672363 
z"/>
<path fill="#D52A35" opacity="1.000000" stroke="none" 
	d="
M228.249573,291.755249 
	C227.407028,290.740387 226.850281,289.564636 226.032547,287.837708 
	C227.445557,287.514435 228.627563,287.244019 230.159790,286.961945 
	C229.851791,288.498322 229.193573,290.046356 228.249573,291.755249 
z"/>
<path fill="#E02A35" opacity="1.000000" stroke="none" 
	d="
M172.183075,277.409515 
	C174.112350,278.139862 176.117615,279.189453 173.380600,281.779266 
	C172.788605,280.560608 172.452286,279.166443 172.183075,277.409515 
z"/>
<path fill="#E02A35" opacity="1.000000" stroke="none" 
	d="
M174.794128,274.762451 
	C174.299118,275.004364 173.681473,275.008514 172.754807,275.015198 
	C173.187683,274.853394 173.929596,274.689026 174.794128,274.762451 
z"/>
<path fill="#D12B36" opacity="1.000000" stroke="none" 
	d="
M340.293213,276.916077 
	C340.425110,276.135376 340.806061,275.174255 341.491150,274.097534 
	C341.377625,274.899811 340.959930,275.817749 340.293213,276.916077 
z"/>
<path fill="#D12B36" opacity="1.000000" stroke="none" 
	d="
M329.296448,291.906250 
	C329.408661,291.113190 329.788727,290.162720 330.468689,289.096405 
	C330.367157,289.903320 329.965759,290.826111 329.296448,291.906250 
z"/>
<path fill="#D12B36" opacity="1.000000" stroke="none" 
	d="
M345.633057,266.501770 
	C345.662567,265.886108 345.940674,265.068787 346.536682,264.119568 
	C346.530273,264.758484 346.205994,265.529266 345.633057,266.501770 
z"/>
<path fill="#E02A35" opacity="1.000000" stroke="none" 
	d="
M184.594269,276.258423 
	C184.896240,276.551910 185.138885,277.101349 185.230316,277.808777 
	C184.897736,277.482666 184.716339,276.998505 184.594269,276.258423 
z"/>
<path fill="#E02A35" opacity="1.000000" stroke="none" 
	d="
M290.100464,140.452698 
	C290.330231,140.288788 290.582336,140.441040 290.884186,140.886566 
	C290.636871,141.113052 290.366516,140.976059 290.100464,140.452698 
z"/>
<path fill="#343959" opacity="1.000000" stroke="none" 
	d="
M326.079895,249.336792 
	C328.098206,249.334351 329.699158,249.334351 332.108551,249.334351 
	C330.865936,252.657166 329.920837,255.184448 328.729492,258.370117 
	C331.413300,258.685364 333.747040,258.959473 336.072723,259.232635 
	C335.037811,266.759766 333.429321,268.163818 326.342804,268.934814 
	C324.853760,269.096771 322.939697,270.249420 322.192383,271.517639 
	C318.125183,278.419952 317.391357,278.834167 308.126190,276.974609 
	C309.090729,274.541107 310.021790,272.192108 311.193604,269.235626 
	C308.411469,268.975250 306.057678,268.754974 303.707977,268.535065 
	C304.215424,261.562988 306.242828,259.183868 312.532867,258.929138 
	C316.199005,258.780670 317.870575,256.760345 318.948181,253.760178 
	C320.090820,250.579102 322.039459,248.710449 326.079895,249.336792 
z"/>
<path fill="#EB2E37" opacity="1.000000" stroke="none" 
	d="
M267.648132,174.718079 
	C264.864807,176.478455 262.519226,175.995331 261.904633,173.214157 
	C261.473297,171.262238 262.131531,168.737122 263.156952,166.960815 
	C263.561768,166.259537 266.803070,166.232010 267.848267,167.051422 
	C270.581757,169.194397 269.880493,171.961563 267.648132,174.718079 
z"/>
<path fill="#E02A35" opacity="1.000000" stroke="none" 
	d="
M190.783340,277.657288 
	C188.040070,277.880157 187.830841,276.445221 189.044312,274.018738 
	C189.730896,274.900513 190.255722,276.113861 190.783340,277.657288 
z"/>
<path fill="#2F3E5E" opacity="1.000000" stroke="none" 
	d="
M545.619995,206.880768 
	C539.008667,208.826385 534.637817,206.965973 533.572449,200.914078 
	C532.861206,196.874008 533.181580,192.196167 534.628113,188.410431 
	C535.442749,186.278275 539.460693,184.286819 542.068665,184.243820 
	C544.427246,184.204941 547.707275,186.353867 549.041504,188.496628 
	C552.326355,193.772064 550.505859,202.273926 545.619995,206.880768 
z"/>
</svg>