<svg version="1.1" id="Layer_1" xmlns="http://www.w3.org/2000/svg" xmlns:xlink="http://www.w3.org/1999/xlink" x="0px" y="0px"
	 width="100%" viewBox="0 0 720 405" enable-background="new 0 0 720 405" xml:space="preserve">
<path fill="#2A3A5B" opacity="1.000000" stroke="none" 
	d="
M475.000000,406.000000 
	C316.701721,406.000000 158.903458,406.000000 1.052593,406.000000 
	C1.052593,271.065063 1.052593,136.130112 1.052593,1.097578 
	C240.881592,1.097578 480.763245,1.097578 720.822449,1.097578 
	C720.822449,135.999817 720.822449,270.999878 720.822449,406.000000 
	C639.130127,406.000000 557.315063,406.000000 475.000000,406.000000 
M217.947968,128.006378 
	C217.947968,128.006378 217.863113,128.037918 217.982605,128.761612 
	C225.015366,139.562317 223.660172,151.725647 223.087799,163.564484 
	C222.883377,167.792557 222.504639,171.628937 224.713852,175.339737 
	C225.590210,176.811752 226.828995,179.623474 227.318695,179.500458 
	C229.418289,178.972931 231.998840,178.037659 233.082932,176.384598 
	C234.405334,174.368088 234.403717,171.483337 235.125000,168.052338 
	C234.930023,161.583710 234.977951,155.096497 234.484695,148.650696 
	C233.689835,138.263199 228.258759,130.651276 219.426697,125.405159 
	C218.022141,124.570869 216.289169,124.289467 214.708023,123.752457 
	C214.554276,124.047195 214.400528,124.341934 214.246780,124.636673 
	C215.171967,125.501297 216.097137,126.365921 217.179855,127.675484 
	C217.366943,127.976067 217.637146,128.113007 217.947968,128.006378 
M156.917786,268.273834 
	C156.085526,266.482941 155.253281,264.692017 154.662933,262.039795 
	C154.165771,257.606476 154.425812,252.918060 153.033997,248.786087 
	C148.249252,234.581390 134.725815,230.202927 123.373543,239.097153 
	C120.608086,241.263809 118.894073,244.772491 116.198792,246.989853 
	C115.099060,240.630020 118.193871,235.774872 122.509438,230.741379 
	C128.795288,225.828461 135.858444,224.814484 143.220490,227.362823 
	C153.429581,230.896667 158.640045,238.910294 161.282059,249.713730 
	C162.118744,252.335083 162.698715,255.079147 163.874283,257.538513 
	C164.796143,259.467163 166.775574,260.885712 167.722061,262.808105 
	C169.949051,267.331177 175.385010,270.500458 180.030685,269.273468 
	C185.322937,267.875732 185.929047,263.618835 185.835953,258.236664 
	C184.848907,249.234787 180.326218,242.678497 173.100906,237.160583 
	C169.549255,234.448196 166.488831,229.847290 165.307739,225.526535 
	C162.561646,215.480698 163.128891,205.369751 169.746033,195.842392 
	C174.689850,191.476395 179.399750,191.261826 185.364319,194.804794 
	C197.521744,202.026291 208.260895,198.588730 214.517517,186.446945 
	C215.032089,185.448364 215.825256,184.542313 216.650177,183.764114 
	C219.245071,181.316193 219.820770,178.836578 216.881683,175.426147 
	C215.005020,172.701523 212.685318,172.311340 209.277725,174.332825 
	C203.803558,177.237045 203.196838,179.906174 207.731445,183.996475 
	C210.432465,186.432846 209.603470,188.097794 207.720230,190.124069 
	C201.639603,196.666595 186.436615,193.765366 183.375381,184.980042 
	C187.408600,181.518311 191.924072,178.469177 195.338699,174.478195 
	C198.717667,170.528900 202.735474,165.860825 203.366608,161.096512 
	C204.578217,151.950333 204.210541,142.456131 203.359207,133.211182 
	C202.334930,122.088043 195.232269,116.738922 184.126495,117.893890 
	C170.994110,119.259613 159.836456,125.519058 148.489349,133.054901 
	C147.062943,134.835724 144.769150,136.434509 144.350952,138.426941 
	C141.645737,151.315582 141.485291,163.922958 150.592590,174.840332 
	C153.377319,178.178513 156.637115,180.974380 161.313156,179.459976 
	C165.752029,178.022385 167.529022,174.284790 168.305206,169.127029 
	C168.221237,162.344498 167.714966,155.531677 168.198227,148.789810 
	C168.533829,144.107651 170.026337,139.457397 171.477478,134.945831 
	C171.799011,133.946152 174.122208,133.590286 175.523743,132.937988 
	C175.986694,134.373962 176.926483,135.843323 176.828751,137.240067 
	C176.437866,142.826263 175.477875,148.377563 175.198105,153.965286 
	C174.900040,159.918198 175.132721,165.897690 174.771530,172.492142 
	C174.047485,174.166809 173.464813,175.920853 172.576477,177.503281 
	C166.699646,187.971985 155.820984,189.413010 147.370575,180.882767 
	C146.252106,179.753708 145.186035,178.572754 143.659882,176.953415 
	C123.091675,203.812317 106.367676,231.283264 111.776871,267.597046 
	C109.291260,266.087769 107.517090,264.988647 105.721321,263.926025 
	C103.802780,262.790771 101.863869,261.690002 99.815773,260.505890 
	C98.232544,267.959290 100.343727,273.658936 106.404678,278.572052 
	C108.843254,279.484528 111.264946,281.128937 113.723259,281.185638 
	C125.777725,281.463715 137.854019,281.643585 149.897873,281.194794 
	C156.440887,280.950958 159.021057,275.833221 156.917786,268.273834 
M210.637589,239.303360 
	C210.831741,231.741837 208.356247,225.272339 202.635284,220.219070 
	C198.146820,216.254425 192.865753,212.714417 196.650772,205.609894 
	C192.763885,203.800964 191.429031,205.395416 190.426453,208.917313 
	C185.790543,215.677048 181.154617,222.436783 176.261993,229.570831 
	C177.861328,230.845245 179.819183,232.626755 181.989929,234.093109 
	C188.225189,238.304977 194.263168,242.206741 192.213943,251.642212 
	C191.423920,255.279816 194.276886,258.615479 198.410294,259.585999 
	C202.357742,260.512878 205.916000,258.767822 207.163986,255.423843 
	C208.967682,250.590881 209.459305,245.268265 210.637589,239.303360 
M267.542389,263.735962 
	C267.960144,262.817871 268.377869,261.899811 269.219116,260.416260 
	C270.274506,258.178589 271.329926,255.940948 272.882324,253.299759 
	C273.206482,252.529083 273.530670,251.758408 274.284027,250.444977 
	C277.381073,244.373474 280.601044,238.360809 283.542847,232.214981 
	C286.922150,225.155045 284.839172,221.693298 277.091064,221.574326 
	C267.114227,221.421097 257.062683,222.280273 247.172012,221.343933 
	C234.851517,220.177551 227.774780,224.866531 223.084641,236.287094 
	C217.924469,248.852158 211.067444,260.720398 204.035782,273.122772 
	C193.573380,273.315338 183.110611,273.490784 172.648895,273.715576 
	C170.662384,273.758301 168.530228,273.601654 166.746490,274.278351 
	C165.476135,274.760284 163.880737,276.493530 163.893143,277.652710 
	C163.905426,278.799957 165.558167,280.491852 166.839706,280.933105 
	C168.818817,281.614563 171.094238,281.591217 173.244553,281.595764 
	C197.208649,281.646393 221.172852,281.654907 245.136993,281.635315 
	C246.778152,281.633972 248.419067,281.316772 250.817932,281.246979 
	C252.554886,280.519287 254.291840,279.791595 256.564575,278.749146 
	C256.966003,277.826263 257.367432,276.903351 258.196930,275.520721 
	C258.786163,274.925690 259.375397,274.330658 260.606598,273.609924 
	C262.630310,270.725677 264.654053,267.841461 266.937500,264.559601 
	C266.937500,264.559601 267.044250,264.096802 267.542389,263.735962 
M479.548523,167.991089 
	C475.020203,169.701797 469.663391,170.416199 466.145203,173.341690 
	C459.853973,178.573151 459.359436,193.013733 464.087860,200.309540 
	C468.321198,206.841385 477.978851,209.450455 486.898468,206.471954 
	C495.455261,203.614624 499.480743,194.991119 497.878204,182.950623 
	C496.634644,173.607224 490.964783,168.744629 479.548523,167.991089 
M347.983307,205.146683 
	C350.762848,205.950195 353.542358,206.753723 357.115814,207.786743 
	C357.115814,201.481888 357.115814,196.730453 357.115814,192.013107 
	C362.317932,192.013107 367.035858,192.013107 372.262604,192.013107 
	C372.262604,197.082504 372.262604,201.820496 372.262604,206.759125 
	C375.360962,206.759125 377.939178,206.759125 381.138641,206.759125 
	C381.138641,195.928940 381.405212,185.321976 380.932892,174.747986 
	C380.827698,172.392365 378.123688,170.152817 376.616241,167.859833 
	C375.094299,170.165054 372.939240,172.291199 372.222839,174.824219 
	C371.457672,177.529800 372.050446,180.619431 372.050446,183.590607 
	C366.736664,183.590607 362.098389,183.590607 356.984741,183.590607 
	C356.984741,178.687271 356.984741,173.931763 356.984741,168.976715 
	C353.762665,168.976715 351.018555,168.976715 347.957947,168.976715 
	C347.957947,180.939301 347.957947,192.571442 347.983307,205.146683 
M429.071686,168.691315 
	C426.799744,168.691315 424.527802,168.691315 422.292603,168.691315 
	C422.292603,181.757812 422.292603,194.161911 422.292603,206.573212 
	C425.339111,206.573212 428.032837,206.573212 431.190735,206.573212 
	C431.190735,201.390137 431.190735,196.635132 431.190735,191.864929 
	C436.285339,191.864929 440.902771,191.864929 446.193970,191.864929 
	C446.193970,196.911987 446.193970,201.787415 446.193970,206.709274 
	C449.455170,206.709274 452.036499,206.709274 455.121429,206.709274 
	C455.121429,195.311417 455.327942,184.194656 454.913086,173.101151 
	C454.845917,171.304779 452.019958,169.611588 450.469208,167.870682 
	C449.003021,169.724640 446.734772,171.394882 446.258209,173.475510 
	C445.539124,176.615005 446.070709,180.040955 446.070709,183.515167 
	C440.878967,183.515167 436.137848,183.515167 431.021057,183.515167 
	C431.021057,181.476517 431.148438,179.655731 430.992371,177.859573 
	C430.731201,174.854095 430.289124,171.864334 429.071686,168.691315 
M512.826782,181.548721 
	C512.825012,179.054886 513.447754,176.335449 512.650635,174.128952 
	C511.807587,171.795227 509.612732,169.949844 508.008362,167.891144 
	C506.557770,169.903305 503.978729,171.851212 503.859833,173.939224 
	C503.435638,181.387787 503.702972,188.889633 503.997223,196.359940 
	C504.171722,200.789139 506.108490,205.192963 510.549500,205.932678 
	C516.260071,206.883865 522.459717,207.098251 528.023926,205.803802 
	C530.820007,205.153351 534.241211,200.670914 534.652466,197.560791 
	C535.712708,189.542145 535.533813,181.310654 535.187195,173.192490 
	C535.109070,171.361450 532.331177,169.645676 530.796021,167.876846 
	C529.299377,169.525742 527.610779,171.047287 526.393433,172.881592 
	C525.849670,173.700912 526.234192,175.148514 526.229370,176.311127 
	C526.208679,181.298523 526.283936,186.287964 526.165466,191.272888 
	C526.015076,197.598495 524.258545,199.823608 519.647583,199.887817 
	C514.862915,199.954407 513.027039,197.585266 512.860901,191.004028 
	C512.789612,188.179398 512.834595,185.351837 512.826782,181.548721 
M335.886871,169.246307 
	C325.571838,166.340179 316.650177,168.357956 312.503998,175.201843 
	C307.663513,183.191635 307.507751,191.884094 311.799500,200.002060 
	C315.816254,207.599884 323.541412,208.010635 331.068207,207.464798 
	C341.661438,206.696594 342.108154,206.087723 342.105957,195.809875 
	C342.105774,194.976700 342.037292,194.136948 342.117065,193.311508 
	C342.465515,189.705368 340.902100,186.199173 337.630280,186.168610 
	C334.392700,186.138367 332.661713,189.567352 333.004150,193.206650 
	C333.035248,193.536972 333.009766,193.872803 333.007690,194.206055 
	C332.974670,199.556152 331.223145,200.964493 326.110107,199.620911 
	C321.160248,198.320206 319.409393,194.581497 318.985870,189.930588 
	C318.349640,182.944244 320.090271,177.881973 324.322998,176.644287 
	C326.604156,175.977264 329.411560,176.649384 331.875580,177.195435 
	C334.428497,177.761169 336.853302,178.904984 339.483582,179.849625 
	C340.895752,175.008240 340.844757,171.611618 335.886871,169.246307 
M542.234741,201.872665 
	C545.529602,207.107895 552.746704,209.082428 560.429565,206.850616 
	C565.501770,205.377151 568.514099,201.619476 568.926575,196.334625 
	C569.345215,190.971451 566.924988,187.416977 562.052673,185.404129 
	C560.209961,184.642868 558.068176,184.285141 556.567017,183.103012 
	C554.892883,181.784668 552.305298,179.132721 552.717407,178.119919 
	C554.020386,174.917343 556.971924,175.362427 559.888000,176.676483 
	C562.001587,177.628937 564.357910,178.042938 566.665955,178.714462 
	C568.028564,171.817612 566.928955,169.700516 561.137695,168.714401 
	C557.947510,168.171173 554.478943,168.179398 551.312500,168.816803 
	C545.564575,169.973846 542.894775,173.326141 542.424194,178.726349 
	C541.953979,184.122589 544.151367,187.638351 549.549072,190.037003 
	C551.976624,191.115784 554.611389,191.853729 556.805847,193.279404 
	C557.931396,194.010620 559.084473,196.128357 558.786133,197.229599 
	C558.473694,198.382675 556.427124,199.804901 555.155212,199.788849 
	C553.160522,199.763672 551.051697,198.874680 549.219116,197.915817 
	C545.014526,195.715820 542.544434,196.724030 542.234741,201.872665 
M575.020081,201.952469 
	C575.313538,205.751297 577.684021,206.998306 581.135620,206.982910 
	C584.963074,206.965851 588.825745,207.313217 592.605713,206.894257 
	C595.034790,206.625046 597.342346,205.259354 599.719543,204.379532 
	C597.656616,199.229721 594.320251,199.372757 590.910278,199.398727 
	C583.765564,199.453110 583.215576,198.716843 584.622253,191.707062 
	C588.972290,190.384033 594.907715,193.761719 597.565552,187.627960 
	C594.467102,181.375809 588.381165,185.363663 584.183228,183.430405 
	C583.870911,176.120178 583.880493,176.319016 591.165344,175.968491 
	C593.764099,175.843445 596.304138,174.497299 598.870911,173.708542 
	C598.879395,172.909729 598.887817,172.110916 598.896240,171.312119 
	C596.644287,170.421432 594.451233,169.029465 592.126709,168.755981 
	C588.517334,168.331360 584.817200,168.732086 581.157715,168.666092 
	C576.730103,168.586243 574.874451,170.702682 574.936951,175.087341 
	C575.060242,183.739243 574.978699,192.394073 575.020081,201.952469 
M416.733154,170.649826 
	C415.120422,169.981186 413.523926,168.785736 411.892090,168.735321 
	C404.921783,168.520020 397.930145,168.423752 390.970367,168.769287 
	C388.742126,168.879898 386.588135,170.486053 384.434875,171.393326 
	C387.289124,177.974579 392.484558,175.216293 396.893494,176.604721 
	C396.893494,186.542114 396.893494,196.575867 396.893494,206.551697 
	C400.221802,206.551697 402.904236,206.551697 406.032684,206.551697 
	C406.032684,196.208191 406.032684,186.309982 406.032684,176.067673 
	C408.607117,176.067673 410.776642,176.331268 412.851379,176.000488 
	C415.403717,175.593536 418.166260,174.951721 416.733154,170.649826 
M265.950134,174.928894 
	C265.958649,183.570786 265.995514,192.212784 265.963379,200.854523 
	C265.948059,204.969620 267.876465,207.010315 272.018494,206.984024 
	C275.840576,206.959747 279.699432,207.320328 283.472321,206.893814 
	C285.900818,206.619293 288.203247,205.229050 290.633331,204.312042 
	C288.064270,198.488876 283.943604,199.330292 280.241302,199.496094 
	C276.468903,199.665024 274.796387,198.405624 274.955994,194.369598 
	C275.211975,187.898270 275.416199,181.373199 274.824005,174.946243 
	C274.597198,172.485077 272.121582,170.231110 270.670746,167.882721 
	C269.097839,169.933197 267.524902,171.983673 265.950134,174.928894 
M303.017212,179.606979 
	C303.016937,178.108490 302.929993,176.603973 303.033630,175.112701 
	C303.285278,171.491730 301.686066,168.148834 298.338531,168.175720 
	C295.421448,168.199173 293.789093,171.425781 293.913116,174.909714 
	C294.090698,179.898315 293.956940,184.897995 293.956635,189.892944 
	C293.956299,195.486435 293.956543,201.079910 293.956543,206.704636 
	C297.305786,206.704636 299.888580,206.704636 303.017212,206.704636 
	C303.017212,197.805466 303.017212,189.192749 303.017212,179.606979 
M390.914856,233.341843 
	C393.348846,232.500137 395.730133,231.320602 398.234497,230.929764 
	C400.050110,230.646423 402.055847,231.684296 403.915070,231.502335 
	C404.358978,231.458893 405.258728,228.122070 404.733307,227.648422 
	C403.283905,226.341812 401.238983,225.124863 399.344574,224.979416 
	C390.028809,224.264023 383.071411,230.358231 380.782776,240.823395 
	C379.531250,246.546265 380.881256,249.752487 385.051453,250.961273 
	C391.127441,252.722504 398.196228,250.460388 399.933411,246.119980 
	C400.196747,245.462021 399.970093,244.607956 399.970093,242.838394 
	C397.476929,243.794830 395.631409,244.718246 393.676819,245.182495 
	C392.188782,245.535934 390.128235,245.902786 389.119324,245.168564 
	C388.108246,244.432770 387.497314,242.225815 387.759247,240.865540 
	C388.218109,238.482788 389.478271,236.254364 390.914856,233.341843 
M449.204529,225.095612 
	C445.403198,225.479614 440.396881,223.495468 438.408691,228.048492 
	C435.259460,235.260178 433.088928,242.899246 430.473022,250.447601 
	C439.957214,253.307419 437.263519,244.193649 439.853394,242.019058 
	C443.882324,241.054062 447.020081,240.302521 450.157837,239.550980 
	C450.142059,238.781372 450.126282,238.011780 450.110504,237.242188 
	C447.513580,236.619705 444.916656,235.997238 442.347382,235.381393 
	C442.650543,230.611572 445.922028,230.355545 449.729523,230.233658 
	C451.194977,230.186752 452.610565,228.583572 454.048889,227.689468 
	C452.726074,226.825073 451.403259,225.960693 449.204529,225.095612 
M404.723358,241.063751 
	C404.072998,243.116379 403.191681,245.133484 402.868103,247.236404 
	C402.702148,248.315048 403.177856,250.028641 403.979462,250.619064 
	C406.357635,252.370667 416.331543,250.554092 419.645477,247.244156 
	C416.030609,246.428711 413.133972,245.775284 410.264679,245.128021 
	C410.568176,238.150223 416.789276,232.208939 413.441467,224.572372 
	C411.115601,226.290268 409.340302,228.187576 408.328827,230.429535 
	C406.903442,233.588882 406.043945,237.003540 404.723358,241.063751 
M424.890686,250.925934 
	C429.860321,244.132233 433.886993,227.843277 430.865021,224.207535 
	C423.594971,231.646622 423.497162,241.815445 419.140198,251.008865 
	C421.474518,251.008865 422.767517,251.008865 424.890686,250.925934 
M212.005173,158.346497 
	C213.256897,159.499405 214.508621,160.652313 215.760361,161.805222 
	C216.556244,160.347763 218.046295,158.844025 217.953110,157.445801 
	C217.859589,156.042450 216.187881,154.744278 215.207840,153.400024 
	C214.136368,154.788651 213.064911,156.177261 212.005173,158.346497 
z"/>
<path fill="#E32833" opacity="1.000000" stroke="none" 
	d="
M259.964630,273.735596 
	C259.375397,274.330658 258.786163,274.925690 257.682953,275.866455 
	C256.788910,277.162750 256.408844,278.113342 256.028778,279.063904 
	C254.291840,279.791595 252.554886,280.519287 250.110718,280.932739 
	C240.897842,280.171356 232.257217,278.599487 223.925125,279.599152 
	C215.889862,280.563141 210.930649,276.003113 204.949677,272.892212 
	C211.067444,260.720398 217.924469,248.852158 223.084641,236.287094 
	C227.774780,224.866531 234.851517,220.177551 247.172012,221.343933 
	C257.062683,222.280273 267.114227,221.421097 277.091064,221.574326 
	C284.839172,221.693298 286.922150,225.155045 283.542847,232.214981 
	C280.601044,238.360809 277.381073,244.373474 273.751526,250.848190 
	C272.941162,252.068710 272.663269,252.886017 272.385345,253.703308 
	C271.329926,255.940948 270.274506,258.178589 268.703186,260.814636 
	C267.806244,262.174286 267.425262,263.135529 267.044250,264.096802 
	C267.044250,264.096802 266.937500,264.559601 266.461456,264.789642 
	C263.978485,267.924988 261.971558,270.830292 259.964630,273.735596 
M262.686829,249.343933 
	C264.551697,242.067825 256.833282,248.482254 256.188843,244.146042 
	C256.920593,242.187698 257.865662,239.658478 258.834167,237.066605 
	C249.992126,235.146713 248.992645,235.724411 245.091324,242.179642 
	C244.082993,243.848083 241.748657,245.409348 239.822540,245.703201 
	C233.109604,246.727402 231.953369,247.627594 230.485168,255.422806 
	C232.886368,255.681137 235.267593,255.937317 238.093872,256.241394 
	C237.058441,258.971619 236.153702,261.357239 235.242401,263.760162 
	C243.436935,266.141510 245.342651,265.287567 249.098709,258.776703 
	C249.895798,257.395020 252.140808,255.843262 253.540726,255.996445 
	C258.449371,256.533630 261.007141,254.341507 262.686829,249.343933 
z"/>
<path fill="#FC7A75" opacity="1.000000" stroke="none" 
	d="
M149.185318,132.832672 
	C159.836456,125.519058 170.994110,119.259613 184.126495,117.893890 
	C195.232269,116.738922 202.334930,122.088043 203.359207,133.211182 
	C204.210541,142.456131 204.578217,151.950333 203.366608,161.096512 
	C202.735474,165.860825 198.717667,170.528900 195.338699,174.478195 
	C191.924072,178.469177 187.408600,181.518311 182.747162,185.050217 
	C176.754852,182.301910 176.527176,176.776550 175.133682,171.865570 
	C175.132721,165.897690 174.900040,159.918198 175.198105,153.965286 
	C175.477875,148.377563 176.437866,142.826263 176.828751,137.240067 
	C176.926483,135.843323 175.986694,134.373962 175.523743,132.937988 
	C174.122208,133.590286 171.799011,133.946152 171.477478,134.945831 
	C170.026337,139.457397 168.533829,144.107651 168.198227,148.789810 
	C167.714966,155.531677 168.221237,162.344498 167.753723,169.491333 
	C165.467209,169.416397 163.577850,169.280426 162.022125,168.488785 
	C151.816681,163.295868 141.907822,150.726990 149.185318,132.832672 
M195.653549,154.701645 
	C193.768707,154.400711 191.883881,154.099777 189.999054,153.798828 
	C189.637207,156.079758 188.888702,158.400711 189.118530,160.620377 
	C189.201462,161.421280 192.438431,162.864105 192.848740,162.490479 
	C194.400589,161.077332 195.457291,159.080811 196.518875,157.200714 
	C196.744614,156.800934 196.211807,155.972855 195.653549,154.701645 
z"/>
<path fill="#E02A34" opacity="1.000000" stroke="none" 
	d="
M174.952606,172.178864 
	C176.527176,176.776550 176.754852,182.301910 182.437775,185.242508 
	C186.436615,193.765366 201.639603,196.666595 207.720230,190.124069 
	C209.603470,188.097794 210.432465,186.432846 207.731445,183.996475 
	C203.196838,179.906174 203.803558,177.237045 209.646210,174.604050 
	C211.076996,176.224365 211.910492,178.158173 213.289566,178.697906 
	C214.085938,179.009567 215.762802,177.071442 217.043365,176.145874 
	C219.820770,178.836578 219.245071,181.316193 216.650177,183.764114 
	C215.825256,184.542313 215.032089,185.448364 214.517517,186.446945 
	C208.260895,198.588730 197.521744,202.026291 185.364319,194.804794 
	C179.399750,191.261826 174.689850,191.476395 169.041046,196.012207 
	C159.165146,197.192657 150.010422,198.412704 140.816315,199.122833 
	C136.420013,199.462418 133.293076,200.822327 131.466736,205.019577 
	C129.158905,210.323471 126.334061,215.413864 124.232857,220.791931 
	C122.960762,224.047913 122.636642,227.674271 121.886620,231.134216 
	C118.193871,235.774872 115.099060,240.630020 116.316284,247.638611 
	C115.567673,257.055420 115.784653,265.524017 122.909561,272.425964 
	C120.325256,273.530762 117.867203,274.720276 115.340416,274.890686 
	C111.865768,275.125031 108.396790,274.767883 105.996353,278.001770 
	C100.343727,273.658936 98.232544,267.959290 99.815773,260.505890 
	C101.863869,261.690002 103.802780,262.790771 105.721321,263.926025 
	C107.517090,264.988647 109.291260,266.087769 111.776871,267.597046 
	C106.367676,231.283264 123.091675,203.812317 143.659882,176.953415 
	C145.186035,178.572754 146.252106,179.753708 147.370575,180.882767 
	C155.820984,189.413010 166.699646,187.971985 172.576477,177.503281 
	C173.464813,175.920853 174.047485,174.166809 174.952606,172.178864 
z"/>
<path fill="#FC7974" opacity="1.000000" stroke="none" 
	d="
M122.198029,230.937805 
	C122.636642,227.674271 122.960762,224.047913 124.232857,220.791931 
	C126.334061,215.413864 129.158905,210.323471 131.466736,205.019577 
	C133.293076,200.822327 136.420013,199.462418 140.816315,199.122833 
	C150.010422,198.412704 159.165146,197.192657 168.744019,196.206665 
	C163.128891,205.369751 162.561646,215.480698 165.307739,225.526535 
	C166.488831,229.847290 169.549255,234.448196 173.100906,237.160583 
	C180.326218,242.678497 184.848907,249.234787 185.419113,258.656281 
	C183.272858,258.984070 181.157043,258.211609 179.888565,258.931763 
	C176.473770,260.870331 174.712662,259.225006 173.793564,256.477203 
	C171.718567,250.273575 167.615631,247.885147 161.300949,248.922913 
	C158.640045,238.910294 153.429581,230.896667 143.220490,227.362823 
	C135.858444,224.814484 128.795288,225.828461 122.198029,230.937805 
z"/>
<path fill="#FD7B75" opacity="1.000000" stroke="none" 
	d="
M123.005165,272.056335 
	C115.784653,265.524017 115.567673,257.055420 116.565208,247.975739 
	C118.894073,244.772491 120.608086,241.263809 123.373543,239.097153 
	C134.725815,230.202927 148.249252,234.581390 153.033997,248.786087 
	C154.425812,252.918060 154.165771,257.606476 154.163513,262.466064 
	C142.153778,259.668274 132.982773,263.959930 124.605103,271.853210 
	C123.856773,271.931976 123.430969,271.994171 123.005165,272.056335 
z"/>
<path fill="#F9FAFB" opacity="1.000000" stroke="none" 
	d="
M479.991760,167.990952 
	C490.964783,168.744629 496.634644,173.607224 497.878204,182.950623 
	C499.480743,194.991119 495.455261,203.614624 486.898468,206.471954 
	C477.978851,209.450455 468.321198,206.841385 464.087860,200.309540 
	C459.359436,193.013733 459.853973,178.573151 466.145203,173.341690 
	C469.663391,170.416199 475.020203,169.701797 479.991760,167.990952 
M477.207855,199.552551 
	C481.672241,200.553864 485.756195,199.382706 486.826477,194.895874 
	C487.892517,190.426849 488.269470,185.335419 487.215149,180.931915 
	C485.825012,175.125885 477.410065,174.045883 473.414154,178.585419 
	C468.767700,183.864014 470.480347,195.343658 477.207855,199.552551 
z"/>
<path fill="#FCFCFD" opacity="1.000000" stroke="none" 
	d="
M347.970642,204.675125 
	C347.957947,192.571442 347.957947,180.939301 347.957947,168.976715 
	C351.018555,168.976715 353.762665,168.976715 356.984741,168.976715 
	C356.984741,173.931763 356.984741,178.687271 356.984741,183.590607 
	C362.098389,183.590607 366.736664,183.590607 372.050446,183.590607 
	C372.050446,180.619431 371.457672,177.529800 372.222839,174.824219 
	C372.939240,172.291199 375.094299,170.165054 376.616211,167.859833 
	C378.123688,170.152817 380.827698,172.392365 380.932892,174.747986 
	C381.405212,185.321976 381.138641,195.928940 381.138641,206.759125 
	C377.939178,206.759125 375.360962,206.759125 372.262604,206.759125 
	C372.262604,201.820496 372.262604,197.082504 372.262604,192.013107 
	C367.035858,192.013107 362.317932,192.013107 357.115814,192.013107 
	C357.115814,196.730453 357.115814,201.481888 357.115814,207.786743 
	C353.542358,206.753723 350.762848,205.950195 347.970642,204.675125 
z"/>
<path fill="#FCFCFD" opacity="1.000000" stroke="none" 
	d="
M429.497437,168.779633 
	C430.289124,171.864334 430.731201,174.854095 430.992371,177.859573 
	C431.148438,179.655731 431.021057,181.476517 431.021057,183.515167 
	C436.137848,183.515167 440.878967,183.515167 446.070709,183.515167 
	C446.070709,180.040955 445.539124,176.615005 446.258209,173.475510 
	C446.734772,171.394882 449.003021,169.724640 450.469208,167.870697 
	C452.019958,169.611588 454.845917,171.304779 454.913086,173.101151 
	C455.327942,184.194656 455.121429,195.311417 455.121429,206.709274 
	C452.036499,206.709274 449.455170,206.709274 446.193970,206.709274 
	C446.193970,201.787415 446.193970,196.911987 446.193970,191.864929 
	C440.902771,191.864929 436.285339,191.864929 431.190735,191.864929 
	C431.190735,196.635132 431.190735,201.390137 431.190735,206.573212 
	C428.032837,206.573212 425.339111,206.573212 422.292603,206.573212 
	C422.292603,194.161911 422.292603,181.757812 422.292603,168.691315 
	C424.527802,168.691315 426.799744,168.691315 429.497437,168.779633 
z"/>
<path fill="#F8F9FA" opacity="1.000000" stroke="none" 
	d="
M512.826782,182.037170 
	C512.834595,185.351837 512.789612,188.179398 512.860901,191.004028 
	C513.027039,197.585266 514.862915,199.954407 519.647583,199.887817 
	C524.258545,199.823608 526.015076,197.598495 526.165466,191.272888 
	C526.283936,186.287964 526.208679,181.298523 526.229370,176.311127 
	C526.234192,175.148514 525.849670,173.700912 526.393433,172.881592 
	C527.610779,171.047287 529.299377,169.525742 530.796021,167.876846 
	C532.331177,169.645676 535.109070,171.361450 535.187195,173.192490 
	C535.533813,181.310654 535.712708,189.542145 534.652466,197.560791 
	C534.241211,200.670914 530.820007,205.153351 528.023926,205.803802 
	C522.459717,207.098251 516.260071,206.883865 510.549500,205.932678 
	C506.108490,205.192963 504.171722,200.789139 503.997223,196.359940 
	C503.702972,188.889633 503.435638,181.387787 503.859833,173.939224 
	C503.978729,171.851212 506.557770,169.903305 508.008362,167.891144 
	C509.612732,169.949844 511.807587,171.795227 512.650635,174.128952 
	C513.447754,176.335449 512.825012,179.054886 512.826782,182.037170 
z"/>
<path fill="#F9FAFB" opacity="1.000000" stroke="none" 
	d="
M336.225128,169.444580 
	C340.844757,171.611618 340.895752,175.008240 339.483582,179.849625 
	C336.853302,178.904984 334.428497,177.761169 331.875580,177.195435 
	C329.411560,176.649384 326.604156,175.977264 324.322998,176.644287 
	C320.090271,177.881973 318.349640,182.944244 318.985870,189.930588 
	C319.409393,194.581497 321.160248,198.320206 326.110107,199.620911 
	C331.223145,200.964493 332.974670,199.556152 333.007690,194.206055 
	C333.009766,193.872803 333.035248,193.536972 333.004150,193.206650 
	C332.661713,189.567352 334.392700,186.138367 337.630280,186.168610 
	C340.902100,186.199173 342.465515,189.705368 342.117065,193.311508 
	C342.037292,194.136948 342.105774,194.976700 342.105957,195.809875 
	C342.108154,206.087723 341.661438,206.696594 331.068207,207.464798 
	C323.541412,208.010635 315.816254,207.599884 311.799500,200.002060 
	C307.507751,191.884094 307.663513,183.191635 312.503998,175.201843 
	C316.650177,168.357956 325.571838,166.340179 336.225128,169.444580 
z"/>
<path fill="#F8F9FA" opacity="1.000000" stroke="none" 
	d="
M542.178955,201.479355 
	C542.544434,196.724030 545.014526,195.715820 549.219116,197.915817 
	C551.051697,198.874680 553.160522,199.763672 555.155212,199.788849 
	C556.427124,199.804901 558.473694,198.382675 558.786133,197.229599 
	C559.084473,196.128357 557.931396,194.010620 556.805847,193.279404 
	C554.611389,191.853729 551.976624,191.115784 549.549072,190.037003 
	C544.151367,187.638351 541.953979,184.122589 542.424194,178.726349 
	C542.894775,173.326141 545.564575,169.973846 551.312500,168.816803 
	C554.478943,168.179398 557.947510,168.171173 561.137695,168.714401 
	C566.928955,169.700516 568.028564,171.817612 566.665955,178.714462 
	C564.357910,178.042938 562.001587,177.628937 559.888000,176.676483 
	C556.971924,175.362427 554.020386,174.917343 552.717407,178.119919 
	C552.305298,179.132721 554.892883,181.784668 556.567017,183.103012 
	C558.068176,184.285141 560.209961,184.642868 562.052673,185.404129 
	C566.924988,187.416977 569.345215,190.971451 568.926575,196.334625 
	C568.514099,201.619476 565.501770,205.377151 560.429565,206.850616 
	C552.746704,209.082428 545.529602,207.107895 542.178955,201.479355 
z"/>
<path fill="#FBFCFC" opacity="1.000000" stroke="none" 
	d="
M575.000977,201.500076 
	C574.978699,192.394073 575.060242,183.739243 574.936951,175.087341 
	C574.874451,170.702682 576.730103,168.586243 581.157715,168.666092 
	C584.817200,168.732086 588.517334,168.331360 592.126709,168.755981 
	C594.451233,169.029465 596.644287,170.421432 598.896240,171.312119 
	C598.887817,172.110916 598.879395,172.909729 598.870911,173.708542 
	C596.304138,174.497299 593.764099,175.843445 591.165344,175.968491 
	C583.880493,176.319016 583.870911,176.120178 584.183228,183.430405 
	C588.381165,185.363663 594.467102,181.375809 597.565552,187.627960 
	C594.907715,193.761719 588.972290,190.384033 584.622253,191.707062 
	C583.215576,198.716843 583.765564,199.453110 590.910278,199.398727 
	C594.320251,199.372757 597.656616,199.229721 599.719543,204.379532 
	C597.342346,205.259354 595.034790,206.625046 592.605713,206.894257 
	C588.825745,207.313217 584.963074,206.965851 581.135620,206.982910 
	C577.684021,206.998306 575.313538,205.751297 575.000977,201.500076 
z"/>
<path fill="#E22A35" opacity="1.000000" stroke="none" 
	d="
M210.510712,240.154541 
	C209.459305,245.268265 208.967682,250.590881 207.163986,255.423843 
	C205.916000,258.767822 202.357742,260.512878 198.410294,259.585999 
	C194.276886,258.615479 191.423920,255.279816 192.213943,251.642212 
	C194.263168,242.206741 188.225189,238.304977 181.989929,234.093109 
	C179.819183,232.626755 177.861328,230.845245 176.261993,229.570831 
	C181.154617,222.436783 185.790543,215.677048 190.729813,209.172394 
	C190.200653,218.440948 191.295364,226.796295 197.849640,233.889633 
	C199.758530,235.955505 200.218658,239.301071 201.637955,241.898819 
	C202.600998,243.661453 204.078674,245.142929 205.326202,246.750137 
	C206.813324,245.165115 208.340668,243.614899 209.762177,241.973083 
	C210.169067,241.503159 210.269669,240.768051 210.510712,240.154541 
z"/>
<path fill="#FCFCFD" opacity="1.000000" stroke="none" 
	d="
M416.998657,170.918732 
	C418.166260,174.951721 415.403717,175.593536 412.851379,176.000488 
	C410.776642,176.331268 408.607117,176.067673 406.032684,176.067673 
	C406.032684,186.309982 406.032684,196.208191 406.032684,206.551697 
	C402.904236,206.551697 400.221802,206.551697 396.893494,206.551697 
	C396.893494,196.575867 396.893494,186.542114 396.893494,176.604721 
	C392.484558,175.216293 387.289124,177.974579 384.434875,171.393326 
	C386.588135,170.486053 388.742126,168.879898 390.970367,168.769287 
	C397.930145,168.423752 404.921783,168.520020 411.892090,168.735321 
	C413.523926,168.785736 415.120422,169.981186 416.998657,170.918732 
z"/>
<path fill="#D12B36" opacity="1.000000" stroke="none" 
	d="
M204.492737,273.007507 
	C210.930649,276.003113 215.889862,280.563141 223.925125,279.599152 
	C232.257217,278.599487 240.897842,280.171356 249.731812,280.882507 
	C248.419067,281.316772 246.778152,281.633972 245.136993,281.635315 
	C221.172852,281.654907 197.208649,281.646393 173.244553,281.595764 
	C171.094238,281.591217 168.818817,281.614563 166.839706,280.933105 
	C165.558167,280.491852 163.905426,278.799957 163.893143,277.652710 
	C163.880737,276.493530 165.476135,274.760284 166.746490,274.278351 
	C168.530228,273.601654 170.662384,273.758301 172.648895,273.715576 
	C183.110611,273.490784 193.573380,273.315338 204.492737,273.007507 
z"/>
<path fill="#FBFBFC" opacity="1.000000" stroke="none" 
	d="
M265.951050,174.481506 
	C267.524902,171.983673 269.097839,169.933197 270.670746,167.882721 
	C272.121582,170.231110 274.597198,172.485077 274.824005,174.946243 
	C275.416199,181.373199 275.211975,187.898270 274.955994,194.369598 
	C274.796387,198.405624 276.468903,199.665024 280.241302,199.496094 
	C283.943604,199.330292 288.064270,198.488876 290.633331,204.312042 
	C288.203247,205.229050 285.900818,206.619293 283.472321,206.893814 
	C279.699432,207.320328 275.840576,206.959747 272.018494,206.984024 
	C267.876465,207.010315 265.948059,204.969620 265.963379,200.854523 
	C265.995514,192.212784 265.958649,183.570786 265.951050,174.481506 
z"/>
<path fill="#FB7874" opacity="1.000000" stroke="none" 
	d="
M210.574158,239.728943 
	C210.269669,240.768051 210.169067,241.503159 209.762177,241.973083 
	C208.340668,243.614899 206.813324,245.165115 205.326202,246.750137 
	C204.078674,245.142929 202.600998,243.661453 201.637955,241.898819 
	C200.218658,239.301071 199.758530,235.955505 197.849640,233.889633 
	C191.295364,226.796295 190.200653,218.440948 190.981323,208.908661 
	C191.429031,205.395416 192.763885,203.800964 196.650772,205.609894 
	C192.865753,212.714417 198.146820,216.254425 202.635284,220.219070 
	C208.356247,225.272339 210.831741,231.741837 210.574158,239.728943 
z"/>
<path fill="#DD2A34" opacity="1.000000" stroke="none" 
	d="
M122.909561,272.425964 
	C123.430969,271.994171 123.856773,271.931976 124.705406,272.169678 
	C126.437721,272.589050 127.745140,272.766174 129.057236,272.813171 
	C130.657425,272.870483 132.546814,272.257568 133.818039,272.904083 
	C142.588943,277.364563 149.625214,272.333588 156.996185,269.001221 
	C159.021057,275.833221 156.440887,280.950958 149.897873,281.194794 
	C137.854019,281.643585 125.777725,281.463715 113.723259,281.185638 
	C111.264946,281.128937 108.843254,279.484528 106.200516,278.286926 
	C108.396790,274.767883 111.865768,275.125031 115.340416,274.890686 
	C117.867203,274.720276 120.325256,273.530762 122.909561,272.425964 
z"/>
<path fill="#E22A35" opacity="1.000000" stroke="none" 
	d="
M148.837341,132.943787 
	C141.907822,150.726990 151.816681,163.295868 162.022125,168.488785 
	C163.577850,169.280426 165.467209,169.416397 167.591370,169.851166 
	C167.529022,174.284790 165.752029,178.022385 161.313156,179.459976 
	C156.637115,180.974380 153.377319,178.178513 150.592590,174.840332 
	C141.485291,163.922958 141.645737,151.315582 144.350952,138.426941 
	C144.769150,136.434509 147.062943,134.835724 148.837341,132.943787 
z"/>
<path fill="#FEFEFE" opacity="1.000000" stroke="none" 
	d="
M303.017212,180.093506 
	C303.017212,189.192749 303.017212,197.805466 303.017212,206.704636 
	C299.888580,206.704636 297.305786,206.704636 293.956543,206.704636 
	C293.956543,201.079910 293.956299,195.486435 293.956635,189.892944 
	C293.956940,184.897995 294.090698,179.898315 293.913116,174.909714 
	C293.789093,171.425781 295.421448,168.199173 298.338531,168.175720 
	C301.686066,168.148834 303.285278,171.491730 303.033630,175.112701 
	C302.929993,176.603973 303.016937,178.108490 303.017212,180.093506 
z"/>
<path fill="#F6F7F8" opacity="1.000000" stroke="none" 
	d="
M390.658783,233.651566 
	C389.478271,236.254364 388.218109,238.482788 387.759247,240.865540 
	C387.497314,242.225815 388.108246,244.432770 389.119324,245.168564 
	C390.128235,245.902786 392.188782,245.535934 393.676819,245.182495 
	C395.631409,244.718246 397.476929,243.794830 399.970093,242.838394 
	C399.970093,244.607956 400.196747,245.462021 399.933411,246.119980 
	C398.196228,250.460388 391.127441,252.722504 385.051453,250.961273 
	C380.881256,249.752487 379.531250,246.546265 380.782776,240.823395 
	C383.071411,230.358231 390.028809,224.264023 399.344574,224.979416 
	C401.238983,225.124863 403.283905,226.341812 404.733307,227.648422 
	C405.258728,228.122070 404.358978,231.458893 403.915070,231.502335 
	C402.055847,231.684296 400.050110,230.646423 398.234497,230.929764 
	C395.730133,231.320602 393.348846,232.500137 390.658783,233.651566 
z"/>
<path fill="#E02A34" opacity="1.000000" stroke="none" 
	d="
M234.974731,168.974106 
	C234.403717,171.483337 234.405334,174.368088 233.082932,176.384598 
	C231.998840,178.037659 229.418289,178.972931 227.318695,179.500458 
	C226.828995,179.623474 225.590210,176.811752 224.713852,175.339737 
	C222.504639,171.628937 222.883377,167.792557 223.087799,163.564484 
	C223.660172,151.725647 225.015366,139.562317 218.272034,128.440796 
	C223.432175,131.360535 225.917725,136.250427 226.818619,141.710022 
	C227.675308,146.901657 227.612686,152.247574 227.910156,157.528137 
	C228.197815,162.634476 229.719193,166.948608 234.974731,168.974106 
z"/>
<path fill="#F6F7F8" opacity="1.000000" stroke="none" 
	d="
M449.642487,225.095947 
	C451.403259,225.960693 452.726074,226.825073 454.048889,227.689468 
	C452.610565,228.583572 451.194977,230.186752 449.729523,230.233658 
	C445.922028,230.355545 442.650543,230.611572 442.347382,235.381393 
	C444.916656,235.997238 447.513580,236.619705 450.110504,237.242188 
	C450.126282,238.011780 450.142059,238.781372 450.157837,239.550980 
	C447.020081,240.302521 443.882324,241.054062 439.853394,242.019058 
	C437.263519,244.193649 439.957214,253.307419 430.473022,250.447601 
	C433.088928,242.899246 435.259460,235.260178 438.408691,228.048492 
	C440.396881,223.495468 445.403198,225.479614 449.642487,225.095947 
z"/>
<path fill="#E02A34" opacity="1.000000" stroke="none" 
	d="
M156.956985,268.637512 
	C149.625214,272.333588 142.588943,277.364563 133.818039,272.904083 
	C132.546814,272.257568 130.657425,272.870483 129.057236,272.813171 
	C127.745140,272.766174 126.437721,272.589050 125.027939,272.153137 
	C132.982773,263.959930 142.153778,259.668274 154.042572,262.896729 
	C155.253281,264.692017 156.085526,266.482941 156.956985,268.637512 
z"/>
<path fill="#E22A35" opacity="1.000000" stroke="none" 
	d="
M161.291504,249.318329 
	C167.615631,247.885147 171.718567,250.273575 173.793564,256.477203 
	C174.712662,259.225006 176.473770,260.870331 179.888565,258.931763 
	C181.157043,258.211609 183.272858,258.984070 185.371643,259.055359 
	C185.929047,263.618835 185.322937,267.875732 180.030685,269.273468 
	C175.385010,270.500458 169.949051,267.331177 167.722061,262.808105 
	C166.775574,260.885712 164.796143,259.467163 163.874283,257.538513 
	C162.698715,255.079147 162.118744,252.335083 161.291504,249.318329 
z"/>
<path fill="#F77470" opacity="1.000000" stroke="none" 
	d="
M235.049866,168.513214 
	C229.719193,166.948608 228.197815,162.634476 227.910156,157.528137 
	C227.612686,152.247574 227.675308,146.901657 226.818619,141.710022 
	C225.917725,136.250427 223.432175,131.360535 218.212296,128.078949 
	C217.863113,128.037918 217.947968,128.006378 217.863052,127.846764 
	C217.582642,127.441475 217.330704,127.289268 217.022324,127.230537 
	C216.097137,126.365921 215.171967,125.501297 214.246780,124.636673 
	C214.400528,124.341934 214.554276,124.047195 214.708023,123.752457 
	C216.289169,124.289467 218.022141,124.570869 219.426697,125.405159 
	C228.258759,130.651276 233.689835,138.263199 234.484695,148.650696 
	C234.977951,155.096497 234.930023,161.583710 235.049866,168.513214 
z"/>
<path fill="#F8F9FA" opacity="1.000000" stroke="none" 
	d="
M404.832916,240.686401 
	C406.043945,237.003540 406.903442,233.588882 408.328827,230.429535 
	C409.340302,228.187576 411.115601,226.290268 413.441467,224.572372 
	C416.789276,232.208939 410.568176,238.150223 410.264679,245.128021 
	C413.133972,245.775284 416.030609,246.428711 419.645477,247.244156 
	C416.331543,250.554092 406.357635,252.370667 403.979462,250.619064 
	C403.177856,250.028641 402.702148,248.315048 402.868103,247.236404 
	C403.191681,245.133484 404.072998,243.116379 404.832916,240.686401 
z"/>
<path fill="#F6F7F8" opacity="1.000000" stroke="none" 
	d="
M424.475586,250.967407 
	C422.767517,251.008865 421.474518,251.008865 419.140198,251.008865 
	C423.497162,241.815445 423.594971,231.646622 430.865021,224.207535 
	C433.886993,227.843277 429.860321,244.132233 424.475586,250.967407 
z"/>
<path fill="#D12B36" opacity="1.000000" stroke="none" 
	d="
M211.999313,157.956177 
	C213.064911,156.177261 214.136368,154.788651 215.207825,153.400024 
	C216.187881,154.744278 217.859589,156.042450 217.953110,157.445801 
	C218.046295,158.844025 216.556244,160.347763 215.760361,161.805222 
	C214.508621,160.652313 213.256897,159.499405 211.999313,157.956177 
z"/>
<path fill="#493A57" opacity="1.000000" stroke="none" 
	d="
M216.962524,175.786011 
	C215.762802,177.071442 214.085938,179.009567 213.289566,178.697906 
	C211.910492,178.158173 211.076996,176.224365 209.982376,174.492935 
	C212.685318,172.311340 215.005020,172.701523 216.962524,175.786011 
z"/>
<path fill="#D12B36" opacity="1.000000" stroke="none" 
	d="
M260.285614,273.672760 
	C261.971558,270.830292 263.978485,267.924988 266.331604,264.988464 
	C264.654053,267.841461 262.630310,270.725677 260.285614,273.672760 
z"/>
<path fill="#D12B36" opacity="1.000000" stroke="none" 
	d="
M267.293335,263.916382 
	C267.425262,263.135529 267.806244,262.174286 268.491455,261.097351 
	C268.377869,261.899811 267.960144,262.817871 267.293335,263.916382 
z"/>
<path fill="#D12B36" opacity="1.000000" stroke="none" 
	d="
M256.296692,278.906525 
	C256.408844,278.113342 256.788910,277.162750 257.468933,276.096313 
	C257.367432,276.903351 256.966003,277.826263 256.296692,278.906525 
z"/>
<path fill="#D12B36" opacity="1.000000" stroke="none" 
	d="
M272.633850,253.501526 
	C272.663269,252.886017 272.941162,252.068710 273.536957,251.119568 
	C273.530670,251.758408 273.206482,252.529083 272.633850,253.501526 
z"/>
<path fill="#E02A34" opacity="1.000000" stroke="none" 
	d="
M217.101089,127.453011 
	C217.330704,127.289268 217.582642,127.441475 217.884308,127.886734 
	C217.637146,128.113007 217.366943,127.976067 217.101089,127.453011 
z"/>
<path fill="#343959" opacity="1.000000" stroke="none" 
	d="
M262.522919,249.677094 
	C261.007141,254.341507 258.449371,256.533630 253.540726,255.996445 
	C252.140808,255.843262 249.895798,257.395020 249.098709,258.776703 
	C245.342651,265.287567 243.436935,266.141510 235.242401,263.760162 
	C236.153702,261.357239 237.058441,258.971619 238.093872,256.241394 
	C235.267593,255.937317 232.886368,255.681137 230.485168,255.422806 
	C231.953369,247.627594 233.109604,246.727402 239.822540,245.703201 
	C241.748657,245.409348 244.082993,243.848083 245.091324,242.179642 
	C248.992645,235.724411 249.992126,235.146713 258.834167,237.066605 
	C257.865662,239.658478 256.920593,242.187698 256.188843,244.146042 
	C256.833282,248.482254 264.551697,242.067825 262.522919,249.677094 
z"/>
<path fill="#EB2E37" opacity="1.000000" stroke="none" 
	d="
M195.841003,155.021881 
	C196.211807,155.972855 196.744614,156.800934 196.518875,157.200714 
	C195.457291,159.080811 194.400589,161.077332 192.848740,162.490479 
	C192.438431,162.864105 189.201462,161.421280 189.118530,160.620377 
	C188.888702,158.400711 189.637207,156.079758 189.999054,153.798828 
	C191.883881,154.099777 193.768707,154.400711 195.841003,155.021881 
z"/>
<path fill="#2F3E5E" opacity="1.000000" stroke="none" 
	d="
M476.851257,199.392944 
	C470.480347,195.343658 468.767700,183.864014 473.414154,178.585419 
	C477.410065,174.045883 485.825012,175.125885 487.215149,180.931915 
	C488.269470,185.335419 487.892517,190.426849 486.826477,194.895874 
	C485.756195,199.382706 481.672241,200.553864 476.851257,199.392944 
z"/>
</svg>